<?xml version="1.0" encoding="UTF-8"?>
<svg id="Layer_1" data-name="Layer 1" xmlns="http://www.w3.org/2000/svg" version="1.1" xmlns:xlink="http://www.w3.org/1999/xlink" viewBox="0 0 1060 252">
  <defs>
    <style>
      .cls-1 {
        fill: #dca533;
      }

      .cls-1, .cls-2, .cls-3, .cls-4, .cls-5, .cls-6 {
        stroke-width: 0px;
      }

      .cls-7 {
        isolation: isolate;
      }

      .cls-2 {
        fill: #621f61;
      }

      .cls-3 {
        fill: #ecdaac;
      }

      .cls-4 {
        fill: #6e2670;
      }

      .cls-5 {
        fill: #722f6f;
      }

      .cls-6 {
        fill: #4a596b;
      }
    </style>
  </defs>
  <g>
    <path class="cls-6" d="M128.4,35.3h0v2.1h-.4v-1.5h-2.5v8.2h1.1v.3h-3.8v-.4h1.1v-8.2h-2.6v1.3h-.6v-2.2h3.9c2.3.2,3.6.2,4.3,0l-.5.3Z"/>
    <path class="cls-6" d="M130.7,34.9h.1c0,.6-.1,1.6-.1,3.2v1.6c.4-.3.7-.6,1-.9.1,0,.2,0,.3-.2s.2,0,.4,0h.6c.3,0,.7,0,1,.2.3,0,.6.3.7.5.2.2.3.4.3.7.1.3.1.6.1,1v2.9c0,.4.1.7.1.8h.9v.4h-2.3c.1-.7.1-1.4.1-2.4v-2c0-.2-.1-.4-.2-.6-.1-.2-.3-.3-.5-.4-.2,0-.5-.2-.7-.2h-.8c-.2,0-.4.2-.6.4-.2.2-.3.4-.4.5,0,0-.1.4-.1.8v2.1c0,.5,0,.8.1.9,0,0,0,.2.1.2h.1c.1,0,.3,0,.7.2h.1v.4h-3.4v-.4h.1c.4,0,.7,0,.7-.2,0,0,.1,0,.1,0,0,0,.1,0,.1-.2s0-.4.1-.9v-6.9c0-.2,0-.3-.1-.3h-1v-.4h.1c1-.4,1.8-.6,2.3-.8h0Z"/>
    <path class="cls-6" d="M141.8,43.7l-.2.5c-.5.3-.9.5-1.2.6h-1c-.5,0-1,0-1.5-.3s-.9-.6-1.2-1.1-.4-1.1-.4-1.8.1-.9.2-1.3c.1-.4.2-.7.4-.8.1-.2.3-.4.6-.6.3-.2.6-.4,1-.5.3,0,.7-.2,1.1-.2s1,0,1.4.4c.4.2.7.6.9,1s.2.8.2,1.2v.4h-.1c-.3.2-.7.2-1.2.2h-3.1c0,.9.2,1.6.7,2s1,.7,1.7.7.6,0,.9-.2c.3,0,.6-.3.8-.3h0ZM137.6,41h3.2v-.2c0-.7-.1-1.2-.4-1.5-.3-.3-.7-.5-1.1-.5s-.9.2-1.2.6c-.4.3-.5.9-.5,1.6Z"/>
    <path class="cls-6" d="M153.7,43.6l-.3.6c-1,.5-2,.8-3.2.8s-2.9-.5-3.9-1.4-1.5-2.1-1.5-3.6.2-1.9.7-2.6c.5-.8,1.2-1.3,2-1.7s1.7-.6,2.8-.6,1.2,0,1.7.2c.6,0,1.1.3,1.4.4h0c-.1.3-.2,1-.3,1.9h-.1v-1.2c-.4-.3-.8-.5-1.3-.6s-.9-.2-1.4-.2-1.4.2-2,.5-1.1.8-1.4,1.4c-.3.6-.5,1.4-.5,2.2s.2,1.7.6,2.3c.4.7.9,1.2,1.6,1.5.7.4,1.4.5,2.3.5h1.1c.4,0,.7-.2.9-.3s.5-.2.7-.4l.2.3h-.1Z"/>
    <path class="cls-6" d="M156,34.9h.1c0,.6-.1,1.6-.1,3.2v1.6c.4-.3.7-.6,1-.9.1,0,.2,0,.3-.2h1c.3,0,.7,0,1,.2.3,0,.6.3.7.5.2.2.3.4.3.7.1.3.1.6.1,1v2.9c0,.4.1.7.1.8h.9v.4h-2.3c.1-.7.1-1.4.1-2.4v-2c0-.2-.1-.4-.2-.6-.1-.2-.3-.3-.5-.4-.2,0-.5-.2-.7-.2h-.8c-.2,0-.4.2-.6.4-.2.2-.3.4-.4.5,0,0-.1.4-.1.8v2.1c0,.5,0,.8.1.9,0,0,0,.2.1.2h.1c.1,0,.3,0,.7.2h.1v.4h-3.4v-.4h.1c.4,0,.7,0,.7-.2,0,0,.1,0,.1,0,0,0,.1,0,.1-.2s0-.4.1-.9v-6.9c0-.2,0-.3-.1-.3h-1v-.4h.1c1.1-.4,1.8-.6,2.3-.8h0Z"/>
    <path class="cls-6" d="M163.8,38.4h.1c0,.7-.1,1.4-.1,2.3v2.4c0,.5,0,.8.1.9v.2h.2c.1,0,.3,0,.7.2h.1v.4h-3.4v-.4h.1c.4,0,.7,0,.7-.2,0,0,.1,0,.1,0,0,0,.1,0,.1-.2s0-.4.1-.9v-3.7s0,0-.1-.2h-1v-.4h.1c.9,0,1.6,0,2.2-.3h0ZM163.2,35.4c.2,0,.4,0,.5.2.1,0,.2.3.2.5s-.1.4-.2.5c-.1,0-.3.2-.5.2s-.4,0-.5-.2c-.1,0-.2-.3-.2-.5s.1-.4.2-.5c.1,0,.3-.2.5-.2Z"/>
    <path class="cls-6" d="M167.1,38.4h.1c0,.4,0,.8-.1,1.3.4-.3.7-.6,1-.9.1,0,.2,0,.3-.2s.2,0,.4,0h.6c.3,0,.7,0,1,.2.3,0,.6.3.7.5.2.2.3.4.3.7.1.3.1.6.1,1v2.9c0,.4.1.7.1.8h.9v.4h-2.3c.1-.7.1-1.4.1-2.4v-2c0-.2-.1-.4-.2-.6-.1-.2-.3-.3-.5-.4-.2,0-.5-.2-.7-.2h-.6c-.2,0-.3,0-.6.3-.2,0-.4.3-.5.4-.1,0-.2.2-.2.4v2.8c0,.5,0,.8.1.9,0,0,0,.2.1.2h.1c.1,0,.3,0,.7.2h.1v.4h-3.4v-.4h.1c.4,0,.7,0,.7-.2h.1s.1,0,.1-.2,0-.4.1-.9v-3.7s0,0-.1-.2h-1v-.4h.1c1-.3,1.7-.5,2.3-.7h0Z"/>
    <path class="cls-6" d="M178.2,43.7l-.2.5c-.5.3-.9.5-1.2.6h-1c-.5,0-1,0-1.5-.3s-.9-.6-1.2-1.1-.4-1.1-.4-1.8.1-.9.2-1.3c.1-.4.2-.7.4-.8.1-.2.3-.4.6-.6.3-.2.6-.4,1-.5.3,0,.7-.2,1.1-.2s1,0,1.4.4c.4.2.7.6.9,1s.2.8.2,1.2v.4h-.1c-.3.2-.7.2-1.2.2h-3.1c0,.9.2,1.6.7,2s1,.7,1.7.7.6,0,.9-.2c.3,0,.6-.3.8-.3h0ZM173.9,41h3.2v-.2c0-.7-.1-1.2-.4-1.5-.3-.3-.7-.5-1.1-.5s-.9.2-1.2.6c-.3.3-.5.9-.5,1.6Z"/>
    <path class="cls-6" d="M178.9,42.8h.4c0,.5,0,.8.1,1.1.1.2.4.4.7.5s.7.2,1,.2c.5,0,.8,0,1.1-.4.3-.3.4-.6.4-.9s-.1-.4-.2-.5c-.1,0-.3-.3-.5-.3s-.6-.2-1.1-.3-.8-.2-1-.2-.4-.2-.5-.3c-.2,0-.3-.3-.4-.5s-.1-.4-.1-.7c0-.6.2-1.1.7-1.4.5-.4,1.1-.5,1.8-.5h1c.4,0,.6.2.8.2h.1c0,.3-.1.7-.1,1.5h-.5c0-.4,0-.6-.1-.7s-.1-.2-.2-.4c-.1,0-.3-.2-.5-.3s-.5,0-.7,0h-.7c-.2,0-.3.2-.4.4-.1.2-.2.4-.2.6s0,.3.1.5c.1,0,.2.2.3.3s.3,0,.4.2l.7.2c.6.2,1.1.3,1.3.4.3,0,.5.3.6.5s.2.5.2.8c0,.6-.3,1.1-.8,1.6-.5.4-1.2.7-1.9.7h-1c-.4,0-.8,0-1.1-.2h0v-.5c.1,0,.1-.4.1-.4.2-.5.2-.8.2-1.3h0Z"/>
    <path class="cls-6" d="M189.7,43.7l-.2.5c-.5.3-.9.5-1.2.6h-1c-.5,0-1,0-1.5-.3s-.9-.6-1.2-1.1-.4-1.1-.4-1.8.1-.9.2-1.3c.1-.4.2-.7.4-.8.1-.2.3-.4.6-.6.3-.2.6-.4,1-.5.3,0,.7-.2,1.1-.2s1,0,1.4.4c.4.2.7.6.9,1s.2.8.2,1.2v.4h-.1c-.3.2-.7.2-1.2.2h-3.1c0,.9.2,1.6.7,2s1,.7,1.7.7.6,0,.9-.2c.3,0,.6-.3.8-.3h0ZM185.4,41h3.2v-.2c0-.7-.1-1.2-.4-1.5-.3-.3-.7-.5-1.1-.5s-.9.2-1.2.6c-.4.3-.5.9-.5,1.6Z"/>
    <path class="cls-6" d="M192.4,35.4h4v.3h-1.2c0,0-.1.2-.1.3v5.8c0,.3.1.6.2.8.1.2.2.4.4.6.2.2.5.3.8.4s.8.2,1.2.2.9,0,1.4-.2c.4,0,.7-.3,1-.6.2-.3.4-.6.4-1,.1-.4.1-1,.1-1.7v-3.4c0-.6,0-1-.1-1,0,0-.1-.2-.2-.2h-1v-.4h3.4v.4h-1.2q-.1,0-.1.2v4.4c0,.8,0,1.4-.1,1.9s-.2.8-.4,1.1-.5.5-.8.8c-.3.2-.7.4-1.1.5s-.9.2-1.4.2-1.2,0-1.6-.2c-.5,0-.9-.3-1.1-.5-.3-.2-.5-.5-.6-.7-.1-.3-.2-.5-.2-.9s-.1-.9-.1-1.6v-4.9s-.1-.2-.1-.3h-1.2c0,0-.3,0-.3,0v-.2Z"/>
    <path class="cls-6" d="M204.3,38.4h.1c0,.4,0,.8-.1,1.3.4-.3.7-.6,1-.9.1,0,.2,0,.3-.2h1c.3,0,.7,0,1,.2.3,0,.6.3.7.5.2.2.3.4.3.7.1.3.1.6.1,1v2.9c0,.4.1.7.1.8h.9v.4h-2.3c.1-.7.1-1.4.1-2.4v-2c0-.2-.1-.4-.2-.6-.1-.2-.3-.3-.5-.4-.2,0-.5-.2-.7-.2h-.6c-.2,0-.3,0-.6.3-.2,0-.4.3-.5.4-.1,0-.2.2-.2.4v2.8c0,.5,0,.8.1.9,0,0,0,.2.1.2h.1c.1,0,.3,0,.7.2h.1v.4h-3.4v-.4h.1c.4,0,.7,0,.7-.2h.1s.1,0,.1-.2,0-.4.1-.9v-3.7s0,0-.1-.2h-1v-.4h.1c1-.3,1.8-.5,2.3-.7h0Z"/>
    <path class="cls-6" d="M212,38.4h.1c0,.7-.1,1.4-.1,2.3v2.4c0,.5,0,.8.1.9v.2h.2c.1,0,.3,0,.7.2h.1v.4h-3.4v-.4h.1c.4,0,.7,0,.7-.2,0,0,.1,0,.1,0,0,0,.1,0,.1-.2s0-.4.1-.9v-3.7s0,0-.1-.2h-1v-.4h.1c.9,0,1.7,0,2.2-.3h0ZM211.5,35.4c.2,0,.4,0,.5.2.1,0,.2.3.2.5s-.1.4-.2.5c-.1,0-.3.2-.5.2s-.4,0-.5-.2c-.1,0-.2-.3-.2-.5s.1-.4.2-.5c.1,0,.3-.2.5-.2Z"/>
    <path class="cls-6" d="M216.2,44.8l-.4-1-.5-1.1-1.4-3.2c-.1-.2-.2-.3-.2-.4h-.7v-.4h3.2v.4h-.1c-.5,0-.7,0-.8.2s-.1,0-.1.2.1.4.3.9l.8,2,.6,1.5.7-1.5.6-1.4c.2-.5.4-.9.4-1.1.1-.2.1-.4.1-.4,0,0,0,0-.1-.2h-.8v-.4h2.6v.4h-.1c-.3,0-.4.2-.5.2s-.2.2-.3.3c-.1.2-.3.6-.7,1.4l-.6,1.4c-.1.2-.5,1.1-1.2,2.7h-.8v-.5Z"/>
    <path class="cls-6" d="M225.4,43.7l-.2.5c-.5.3-.9.5-1.2.6h-1c-.5,0-1,0-1.5-.3s-.9-.6-1.2-1.1-.4-1.1-.4-1.8.1-.9.2-1.3c.1-.4.2-.7.4-.8.1-.2.3-.4.6-.6.3-.2.6-.4,1-.5.3,0,.7-.2,1.1-.2s1,0,1.4.4c.4.2.7.6.9,1s.2.8.2,1.2v.4h-.1c-.3.2-.7.2-1.2.2h-3.1c0,.9.2,1.6.7,2s1,.7,1.7.7.6,0,.9-.2c.3,0,.6-.3.8-.3h0ZM221.1,41h3.2v-.2c0-.7-.1-1.2-.4-1.5-.3-.3-.7-.5-1.1-.5s-.9.2-1.2.6c-.3.3-.5.9-.5,1.6Z"/>
    <path class="cls-6" d="M228.1,38.4h.1c0,.4,0,.8-.1,1.5l.5-.6c.2-.2.3-.4.4-.5.1,0,.3-.2.4-.3h1.1c-.1.7-.1,1.2-.1,1.7h-.3c-.2-.4-.5-.6-.9-.6s-.5,0-.7.3-.3.4-.4.7c-.1.3-.1.6-.1,1v1.7c0,.5,0,.8.1.9,0,0,.1,0,.1.2h1.2v.4h-3.6v-.4h.1c.4,0,.7,0,.7-.2h.1s.1,0,.1-.2,0-.4.1-.9v-3.7s0,0-.1-.2h-1v-.4h.1c.9,0,1.6-.3,2.2-.5h0Z"/>
    <path class="cls-6" d="M231.3,42.8h.4c0,.5,0,.8.1,1.1.1.2.4.4.7.5s.7.2,1,.2c.5,0,.8,0,1.1-.4.3-.3.4-.6.4-.9s-.1-.4-.2-.5c-.1,0-.3-.3-.5-.3s-.6-.2-1.1-.3-.8-.2-1-.2-.4-.2-.5-.3c-.2,0-.3-.3-.4-.5s-.1-.4-.1-.7c0-.6.2-1.1.7-1.4.5-.4,1.1-.5,1.8-.5h1c.4,0,.6.2.8.2h.1c0,.3-.1.7-.1,1.5h-.5c0-.4,0-.6-.1-.7s-.1-.2-.2-.4c-.1,0-.3-.2-.5-.3s-.5,0-.7,0h-.7c-.2,0-.3.2-.4.4-.1.2-.2.4-.2.6s0,.3.1.5c.1,0,.2.2.3.3s.3,0,.4.2l.7.2c.6.2,1.1.3,1.3.4.3,0,.5.3.6.5s.2.5.2.8c0,.6-.3,1.1-.8,1.6-.5.4-1.2.7-1.9.7h-1c-.4,0-.8,0-1.1-.2h0v-.5c.1,0,.1-.4.1-.4,0-.5,0-.8.2-1.3h0Z"/>
    <path class="cls-6" d="M238.5,38.4h.1c0,.7-.1,1.4-.1,2.3v2.4c0,.5,0,.8.1.9v.2h.2c.1,0,.3,0,.7.2h.1v.4h-3.4v-.4h.1c.4,0,.7,0,.7-.2,0,0,.1,0,.1,0,0,0,.1,0,.1-.2s0-.4.1-.9v-3.7s0,0-.1-.2h-1v-.4h.1c.9,0,1.6,0,2.2-.3h0ZM238,35.4c.2,0,.4,0,.5.2.1,0,.2.3.2.5s-.1.4-.2.5c-.1,0-.3.2-.5.2s-.4,0-.5-.2c-.1,0-.2-.3-.2-.5s.1-.4.2-.5c.1,0,.2-.2.5-.2Z"/>
    <path class="cls-6" d="M239.8,39.5v-.2h0c.4-.3.8-.4,1-.5v-2c.5-.2.8-.3,1.1-.5h.2c0,.4-.1,1.2-.2,2.5h1.8v.6h-2v3.9c0,.2.1.3.2.5.1,0,.3.2.6.2s.6,0,.8-.2l.2.2c-.1,0-.4.3-.8.7-.2,0-.5.2-.7.2-1,0-1.5-.5-1.5-1.4v-3.9h-.3c.2-.2,0-.2-.4-.2h0Z"/>
    <path class="cls-6" d="M244.2,48.3c.2-.4.3-.7.3-1h.2c.2.2.5.4.7.4.3,0,.6-.2.8-.5s.6-1,1-2.1c-.2-.5-.3-.9-.5-1.3l-1.1-2.6c-.1-.3-.3-.7-.5-1.2s-.3-.8-.4-.8h-.8v-.4h3.3v.4h-.8c0,0-.1,0-.1.2,0,0,.1.3.2.7.1.4.3.8.4,1.1l.4,1c.3.7.5,1.2.6,1.5l.4-.8c.1-.3.3-.7.5-1.3l.6-1.4c.1-.4.2-.6.2-.7v-.2s0-.2-.1-.2h-.8v-.4h2.6v.4h-.1c-.2,0-.3,0-.4.2-.1,0-.2,0-.3.2-.1,0-.2.4-.5.9-.2.5-.5,1-.7,1.5l-.7,1.4-1.5,3.6c-.1.3-.3.6-.5,1s-.4.6-.7.8-.6.2-.9.2-.6,0-.8-.3v-.3Z"/>
    <path class="cls-6" d="M253.3,41.7c0-.5.1-1,.3-1.5s.6-.9,1.1-1.3c.5-.4,1.2-.5,1.9-.5s1.7.3,2.3.9c.6.6.9,1.3.9,2.3s-.3,1.9-1,2.5c-.7.7-1.5,1-2.4,1s-1.2-.2-1.7-.5-.8-.7-1.1-1.2c-.2-.6-.3-1.2-.3-1.7h0ZM254.6,41.2c0,.6.1,1.2.2,1.7.2.5.4.9.8,1.2.3.3.7.4,1.2.4s1-.2,1.3-.6c.3-.4.5-1,.5-1.9s-.2-1.7-.6-2.3-.9-.9-1.6-.9-1,.2-1.4.6c-.3.4-.4,1-.4,1.8Z"/>
    <path class="cls-6" d="M263.6,44.4h0v.3c.1,0,0,0,0,0h-3.6v-.4h.1c.4,0,.7,0,.7-.2,0,0,.1,0,.1,0,0,0,.1,0,.1-.2s0-.4.1-.9v-3.7h-1v-.3h0c0,0,.9-.5.9-.5v-.4c0-.4,0-.8.1-1,0-.2.1-.4.2-.6.1-.2.3-.4.6-.7.3-.3.5-.5.7-.7s.4-.3.5-.4h1v1.1h-.2c-.2,0-.5-.2-.9-.2h-.6c-.2,0-.3.3-.3.5-.1.2-.1.6-.1,1.1v1.4h1.8v.7h-1.9v3.7c0,.5,0,.8.1.9,0,0,0,.2.1.2h.2c.5-.2.8,0,1.3,0v.3Z"/>
    <path class="cls-6" d="M267.2,35.3h3.9v.3h-1.2c-.1,0-.1.2-.1.3v3.1h5.5v-3.2s-.1-.2-.1-.3h-1.1v-.3h3.9v.3h-1.2c-.1,0-.1.2-.1.3v7.6s.1.2.1.3h1.2v.3h-3.9v-.4h1.1s.1,0,.1-.3v-3.8h-5.5v3.8s.1.2.1.3h1.2v.3h-4v-.4h1.2s.1,0,.1-.3,0-.4.1-.9v-6.8s-.1-.2-.1-.3h-.2c-.1,0-.4,0-1,0h0Z"/>
    <path class="cls-6" d="M277.7,41.7c0-.5.1-1,.3-1.5.2-.5.6-.9,1.1-1.3.5-.4,1.2-.5,1.9-.5s1.7.3,2.3.9c.6.6.9,1.3.9,2.3s-.3,1.9-1,2.5c-.7.7-1.5,1-2.4,1s-1.2-.2-1.7-.5-.8-.7-1.1-1.2c-.2-.6-.3-1.2-.3-1.7h0ZM279,41.2c0,.6.1,1.2.2,1.7.2.5.4.9.8,1.2.3.3.7.4,1.2.4s1-.2,1.3-.6c.3-.4.5-1,.5-1.9s-.2-1.7-.6-2.3-.9-.9-1.6-.9-1,.2-1.4.6c-.3.4-.4,1-.4,1.8Z"/>
    <path class="cls-6" d="M286.6,38.4h.1c0,.4,0,.8-.1,1.3.4-.3.7-.6,1-.9.1,0,.2,0,.3-.2s.2,0,.4,0h.6c.3,0,.7,0,1,.2.3,0,.6.3.7.5.2.2.3.4.3.7.1.3.1.6.1,1v2.9c0,.4.1.7.1.8h.9v.4h-2.3c.1-.7.1-1.4.1-2.4v-2c0-.2-.1-.4-.2-.6-.1-.2-.3-.3-.5-.4-.2,0-.5-.2-.7-.2h-.6c-.2,0-.3,0-.6.3-.2,0-.4.3-.5.4-.1,0-.2.2-.2.4v2.8c0,.5,0,.8.1.9,0,0,0,.2.1.2h.1c.1,0,.3,0,.7.2h.1v.4h-3.4v-.4h.1c.4,0,.7,0,.7-.2h.1s.1,0,.1-.2,0-.4.1-.9v-3.7s0,0-.1-.2h-1v-.4h.1c1-.3,1.7-.5,2.3-.7h0Z"/>
    <path class="cls-6" d="M299.1,38.8h.1c-.2.4-.3.6-.3.6h-1.2c.1.2.2.5.2.8s-.1.6-.2.9c-.1.3-.3.5-.6.8-.3.2-.5.4-.9.5-.3,0-.7.2-1.1.2h-.3c-.3.2-.4.4-.5.5s-.1.2-.1.3c0,.2.1.3.3.4h2.6c.5,0,.8,0,1.1.2.3,0,.5.3.6.6.2.3.2.6.2.9,0,.5-.2,1-.5,1.5s-.8.9-1.4,1.1c-.6.3-1.2.4-1.9.4h-1.1c-.3,0-.6-.2-.9-.4s-.5-.4-.6-.7c-.2-.3-.2-.6-.2-.9s0-.3.1-.5c0-.2.1-.4.3-.6l1.2-.7c-.4,0-.6-.2-.7-.4-.1,0-.1-.3-.1-.4,0-.2.1-.4.2-.6l1.1-.8c-.6-.2-1.1-.4-1.3-.7-.2-.3-.3-.7-.3-1.1s.1-.7.2-1c.2-.3.4-.6.7-.8.3-.2.7-.3,1.1-.5.4,0,.7-.2,1.1-.2.6,0,1.1.2,1.6.5.3.2,1,.2,1.5,0h0ZM295.6,44.8h-1.2c-.1,0-.3,0-.5.2-.2,0-.4.3-.5.5s-.2.5-.2.8c0,.5.2.9.6,1.2s.9.5,1.5.5.9,0,1.3-.3.7-.5.9-.8c.2-.3.3-.6.3-.9s-.1-.6-.2-.8c-.2-.2-.4-.3-.6-.4-.4,0-.8,0-1.4,0h0ZM293.7,40.4c0,.3.1.6.2.9.1.3.3.5.5.7s.5.2.8.2.7,0,1-.4c.3-.3.4-.7.4-1.2s-.1-.9-.4-1.2c-.3-.4-.6-.6-1.1-.6s-.7,0-1,.4c-.3.3-.4.7-.4,1.2Z"/>
    <path class="cls-6" d="M304.4,39.9c1.1-1,1.9-1.8,2.4-2.3s.9-.9,1.2-1.2c.3-.3.5-.5.6-.6v-.4h2.4v.4h-.1c-.4,0-.7,0-.8.2-.1,0-.4.2-.7.4-.3.2-.6.5-1,.9l-2.7,2.5,4,3.7c.6.6,1,.9,1.1,1s.2,0,.5,0h0v.4h0c-.3,0-.5,0-.8,0h-1.1c-.4-.4-.8-.7-1.1-1-.3-.3-1.6-1.5-3.9-3.6v3.7s.1.2.1.3h1.2v.3h-4v-.4h1.2s.1,0,.1-.3v-7.7s-.1-.2-.1-.3h-1.2v-.3h4v.3h-1.2c-.1,0-.1.2-.1.3v3.6h0Z"/>
    <path class="cls-6" d="M310.8,41.7c0-.5.1-1,.3-1.5.2-.5.6-.9,1.1-1.3.5-.4,1.2-.5,1.9-.5s1.7.3,2.3.9c.6.6.9,1.3.9,2.3s-.3,1.9-1,2.5c-.7.7-1.5,1-2.4,1s-1.2-.2-1.7-.5-.8-.7-1.1-1.2c-.2-.6-.3-1.2-.3-1.7h0ZM312,41.2c0,.6.1,1.2.2,1.7.2.5.4.9.8,1.2.3.3.7.4,1.2.4s1-.2,1.3-.6c.3-.4.5-1,.5-1.9s-.2-1.7-.6-2.3-.9-.9-1.6-.9-1,.2-1.4.6c-.2.4-.4,1-.4,1.8Z"/>
    <path class="cls-6" d="M319.6,38.4h.1c0,.4,0,.8-.1,1.3.4-.3.7-.6,1-.9.1,0,.2,0,.3-.2h1c.3,0,.7,0,1,.2.3,0,.6.3.7.5.2.2.3.4.3.7.1.3.1.6.1,1v2.9c0,.4.1.7.1.8h.9v.4h-2.3c.1-.7.1-1.4.1-2.4v-2c0-.2-.1-.4-.2-.6-.1-.2-.3-.3-.5-.4-.2,0-.5-.2-.7-.2h-.6c-.2,0-.3,0-.6.3-.2,0-.4.3-.5.4-.1,0-.2.2-.2.4v2.8c0,.5,0,.8.1.9v.2h.2c.1,0,.3,0,.7.2h.1v.4h-3.4v-.4h.1c.4,0,.7,0,.7-.2h.1s.1,0,.1-.2,0-.4.1-.9v-3.7s0,0-.1-.2h-1v-.4h.1c1-.3,1.7-.5,2.3-.7h0Z"/>
    <path class="cls-6" d="M332.1,38.8h.1c-.2.4-.3.6-.3.6h-1.2c.1.2.2.5.2.8s-.1.6-.2.9c-.1.3-.3.5-.6.8-.3.2-.5.4-.9.5-.3,0-.7.2-1.1.2h-.3c-.3.2-.4.4-.5.5s-.1.2-.1.3c0,.2.1.3.3.4h2.6c.5,0,.8,0,1.1.2.3,0,.5.3.6.6.2.3.2.6.2.9,0,.5-.2,1-.5,1.5s-.8.9-1.4,1.1c-.6.3-1.2.4-1.9.4h-1.1c-.3,0-.6-.2-.9-.4s-.5-.4-.6-.7c-.2-.3-.2-.6-.2-.9s0-.3.1-.5c0-.2.1-.4.3-.6l1.2-.7c-.4,0-.6-.2-.7-.4-.1,0-.1-.3-.1-.4,0-.2.1-.4.2-.6l1.1-.8c-.6-.2-1.1-.4-1.3-.7-.2-.3-.3-.7-.3-1.1s.1-.7.2-1c.2-.3.4-.6.7-.8.3-.2.7-.3,1.1-.5.4,0,.7-.2,1.1-.2.6,0,1.1.2,1.6.5.4.2,1,.2,1.5,0h0ZM328.7,44.8h-1.2c-.1,0-.3,0-.5.2-.2,0-.4.3-.5.5s-.2.5-.2.8c0,.5.2.9.6,1.2s.9.5,1.5.5.9,0,1.3-.3.7-.5.9-.8c.2-.3.3-.6.3-.9s-.1-.6-.2-.8c-.2-.2-.4-.3-.6-.4-.4,0-.8,0-1.4,0h0ZM326.7,40.4c0,.3.1.6.2.9.1.3.3.5.5.7s.5.2.8.2.7,0,1-.4c.3-.3.4-.7.4-1.2s-.1-.9-.4-1.2c-.3-.4-.6-.6-1.1-.6s-.7,0-1,.4c-.3.3-.4.7-.4,1.2Z"/>
  </g>
  <g>
    <path class="cls-6" d="M333.8,35.4h4v.3h-1.2c-.1,0-.1.2-.2.3v7.8h3.4c.3,0,.5,0,.8-.2,0,0,.1-.4.2-.8.1-.4.1-.6.1-.7h.1c0,0,.3,0,.3,0h0c0,.3-.1.6-.1,1.1s-.1.9-.1,1.2h-6.8v-.3h.1c.3-.2.4-.3.5-.4,0,0,.1-.3.1-.9v-7.2s-.1-.2-.1-.3h-1.2v.2s.1,0,.1,0Z"/>
    <path class="cls-6" d="M343.8,38.4h.1c0,.7-.1,1.4-.1,2.3v2.4c0,.5,0,.8.1.9,0,0,0,.2.1.2h.1c.1,0,.3,0,.7.2h.1v.4h-3.4v-.4h.1c.4,0,.7,0,.7-.2,0,0,.1,0,.1,0,0,0,.1,0,.1-.2s0-.4.1-.9,0-.9,0-1.1v-2.6s0,0-.1-.2h-1v-.4h.1c1,0,1.7-.2,2.2-.4h0ZM343.3,35.4c.2,0,.4,0,.5.2.1,0,.2.3.2.5s-.1.4-.2.5-.3.2-.5.2-.4,0-.5-.2c-.1,0-.2-.3-.2-.5s.1-.4.2-.5.3-.2.5-.2Z"/>
    <path class="cls-6" d="M345,35.8h0v-.3c-.1,0,0,0,0,0,.8,0,1.6-.3,2.1-.5h.1c0,.6-.1,1.6-.1,3.2v1.7c.1,0,.2-.3.5-.5.2-.2.4-.4.6-.5.1,0,.3-.2.6-.2h.8c.5,0,.9,0,1.3.4.4.2.7.6.8,1,.2.4.3.9.3,1.3s-.1.9-.2,1.3c-.2.4-.3.7-.5,1-.1.2-.3.3-.7.6-.6.4-1.1.7-1.3.8-.3,0-.6.2-1,.2h-.8c-.3,0-.5-.2-.8-.4l-.5.5h-.2v-8.9c0-.2,0-.3-.1-.3h-.1c0,0-.4,0-.8,0v-.3ZM347.2,40.5v2.9s.1.2.3.3c.2,0,.4.2.6.3s.5,0,.8,0c.6,0,1.1-.2,1.5-.7s.5-1.1.5-1.9-.1-.9-.2-1.2c-.1-.4-.4-.6-.7-.8-.3-.2-.6-.3-1-.3s-.8,0-1.2.4c-.3.3-.6.6-.6.9h0Z"/>
    <path class="cls-6" d="M354.7,38.4h.1c0,.4,0,.8-.1,1.5l.5-.6c.2-.2.3-.4.4-.5s.3-.2.4-.3h1.1c-.1.7-.1,1.2-.1,1.7h-.3c-.2-.4-.5-.6-.9-.6s-.5,0-.7.3-.3.4-.4.7-.1.6-.1,1v1.7c0,.5,0,.8.1.9,0,0,.1,0,.1.2h1.2v.4h-3.6v-.4h.1c.4,0,.7,0,.7-.2h.1s.1,0,.1-.2,0-.4.1-.9v-3.7s0,0-.1-.2h-1v-.4h.1c.9-.2,1.6-.4,2.2-.6v.2Z"/>
    <path class="cls-6" d="M358.4,40.2h-.3v-.2c-.1,0-.1-.8-.1-.8.8-.6,1.6-.9,2.3-.9s.9,0,1.3.3c.3.2.6.4.7.7.2.3.2.6.2,1v3.3c0,.3,0,.4.1.5h.9v.4h-2.1v-1.2l-1.5,1.1c-.2,0-.5.2-.8.2s-.7,0-.9-.2c-.3,0-.4-.3-.6-.5-.1-.2-.2-.5-.2-.8,0-.7.2-1.2.6-1.5.4-.4,1.5-.7,3.3-.9,0-.7-.1-1.1-.4-1.4-.3-.3-.7-.4-1.2-.4h-.7c-.2,0-.3,0-.4.2.1,0,0,.3-.2.8h0v.3ZM361.5,41.3c-1.2.2-2,.4-2.3.7-.3.2-.5.6-.5,1.1s.3,1,1,1,1.2-.3,1.7-1v-1.8h0Z"/>
    <path class="cls-6" d="M365.9,38.4h.1c0,.4,0,.8-.1,1.5l.5-.6c.2-.2.3-.4.4-.5s.3-.2.4-.3h1.1c-.1.7-.1,1.2-.1,1.7h-.3c-.2-.4-.5-.6-.9-.6s-.5,0-.7.3-.3.4-.4.7-.1.6-.1,1v1.7c0,.5,0,.8.1.9,0,0,.1,0,.1.2h1.2v.4h-3.6v-.4h.1c.4,0,.7,0,.7-.2h.1s.1,0,.1-.2,0-.4.1-.9v-3.7s0,0-.1-.2h-1v-.4h.1c.9-.2,1.6-.4,2.2-.6v.2Z"/>
    <path class="cls-6" d="M369,48.3c.2-.4.3-.7.3-1h.2c.2.2.5.4.7.4.3,0,.6-.2.8-.5.2-.3.6-1,1-2.1-.2-.5-.3-.9-.5-1.3l-1.1-2.6c-.1-.3-.3-.7-.5-1.2s-.3-.8-.4-.8h-.8v-.4h3.3v.4h-.8c0,0-.1,0-.1.2,0,0,.1.3.2.7s.3.8.4,1.1l.4,1c.3.7.5,1.2.6,1.5l.4-.8c.1-.3.3-.7.5-1.3l.6-1.4c.1-.4.2-.6.2-.7v-.2s0-.2-.1-.2h-.8v-.4h2.6v.4h-.1c-.2,0-.3,0-.4.2-.1,0-.2,0-.3.2-.1,0-.2.4-.5.9s-.5,1-.7,1.5l-.7,1.4-1.5,3.6c-.1.3-.3.6-.5,1s-.4.6-.7.8c-.3.2-.6.2-.9.2s-.6,0-.8-.3v-.3Z"/>
  </g>
  <g>
    <path class="cls-6" d="M124.7,15.8c0,0,0,0,0,0,.7-.1,1.5-.4,2.5-.9l.8-.3c.2-.1.3-.2.3-.4s-.2-.4-.4-.6c-.5-.3-.9-.4-1.4-.3,0,0,0,.1-.2.2v.2h0c0,.3-.2.7-1.8,1.6-.2.1-.4.2-.5.3v.2c0-.1.2,0,.5,0h.2Z"/>
    <path class="cls-6" d="M128.6,23.1c-.2-.2-.5-.3-.8-.4-.4,0-.8.1-1.3.4,0-.1,0-.4.2-.8,0-.6.2-1.9.3-3.7l2.8-1.1h0c0-.3-.1-.4-.2-.5-.2-.2-.4-.3-.7-.4h0c-.3,0-.9.2-1.9.7v-1.6c-.2-.2-.3-.3-.6-.3s-.5.1-.7.3l-.3.4v.3s0,.1.2.1h0c.2,0,.3.1.3.5v.7l-3.9,1.8c-.5.3-1.1.5-1.5.5h-.3c-.5-.2-.6-.1-.7,0s0,.3,0,.4c.4.4,1,.5,1.6.5s.4,0,.6-.1h0c.3-.1.6-.2.8-.4.8-.5,1.8-1.1,3.1-1.6-2,2.7-3.9,4.5-5.6,5.3,0,0-.3.1-.4.2h0c0,.2,0,.3.2.3h0c1.2-.2,2.2-.7,3.2-1.4h0c.5-.5,1.4-1.6,2.6-3.2v2.5c0,.2,0,.4.2.4-.2.1-.3.3-.5.4-.4.4-.6.7-.8,1,0,.2-.2.3-.2.3v-.2c-.2-.7-.5-.9-.8-.9h0s-.3,0-.4.2c0,.1,0,.2.2.3.2.1.3.5.4,1.1v2c0,.4,0,.7.3,1.1.2.2.4.3.5.3.4,0,.3-.6.3-.9,0-1.3.4-2.6,1.5-3.7l.4-.4c.4-.3.7-.4.9-.4h0s.3.1.4.2c.3.4.4,1.6.1,3.7-.1.5-.2.6-.3.7,0,0,0-.1,0-.2,0-.1-.2-.2-.5-.3-.3-.1-.8.1-1.4.4,0,0-.4.2-.8.3,0,0-.2,0-.3.1v.2h0c.5.2,1.1.3,2,.1h.3c.4.4.8.5,1,.5h.1c.1,0,.3-.1.4-.1.3-.1.6-.4.7-1.2.1-1,.1-2.2-.1-3.6,0-.3-.3-.6-.6-.8h0ZM128.3,29h0Z"/>
    <path class="cls-6" d="M126,27h0c0,.1.2.1.5-.2.3-.2.7-.4,1.1-.6.2-.1.3-.2.4-.3v-.2h0s0-.1-.2-.1h0c-.3-.1-.6,0-1,.1-.5.2-1,.4-1.2.5,0,0-.2,0-.2.2s.2.2.3.2h.5v.3c0-.1-.2,0,0,0h-.1Z"/>
    <path class="cls-6" d="M132.3,21.2c-.2-.2-.7-.4-1.6-.7-.9-.3-1.5-.5-2.2-.6-.4-.1-.5.1-.5.1v.2c0,.1.1.2.3.2,1.1.5,1.9.9,2.2,1.1h-.6c-.2,0-.3.2-.3.2,0,.1.1.2.3.2,1,0,1.7.1,2,.3.2.1.3.2.5.2s.2,0,.2-.1c.2-.1.2-.3.2-.5s-.2-.4-.5-.6h0Z"/>
    <path class="cls-6" d="M150.1,21.2c-.1-.1-.5-.2-1.5-.4-.8-.2-1.4-.3-1.8-.3h-.1c-.3,0-.3.1-.4.1h0c0,.2.2.2.3.3.8.2,2,.9,3.5,1.8l.8.4c.1,0,.1.1.2.1s.1,0,.2-.1c.1-.1.1-.3-.2-.9-.3-.3-.6-.7-1-1Z"/>
    <path class="cls-6" d="M138.1,20.5c.1.1.2.4.2,1.2,0,0,0,.2.1.3h.2c.1,0,.2-.1.3-.3.3-.4.5-.8.5-1.2s-.1-.3-.3-.5c-.3-.2-.5-.3-.7-.4l-.3-.2-.4-.2v.4c0,.2,0,0,0,0,0,.5.2.8.4.9Z"/>
    <path class="cls-6" d="M146.1,25.3h-.7c0,.2.1.3.3.5.3.2.5.3.8.3h.1c.3,0,.6-.2.8-.5.2-.4.4-1.1.6-2v-.4c-.1-.4-.5-.8-.9-1.1h-.1c-.4-.1-1.9.9-2.1,1-.2.1-.3.1-.3.1-.1,0-.3,0-.3.2-.1.2.1.3.3.4.2.2.4.2.5.2h.1c.2-.1.8-.7,1.4-1.2h.1c0,0,0-.1.1-.1.3.7.2,1.4-.3,2.2-.1.2-.2.4-.4.4h0Z"/>
    <path class="cls-6" d="M148.3,19.2h0c.6,0,.8,0,.9-.1.1-.1.1-.3-.2-.5-.2-.2-.4-.4-.6-.4-.3,0-.6.1-.9.2l-.9.3-.6.2c.7-.9,1.2-1.8,1.6-2.7.3-.1.6-.2,1.1-.2s.4,0,.5-.1.1-.3-.1-.5c-.1-.1-.3-.2-.6-.3h-.5v-.4c0-.3-.2-.5-.5-.8-.3-.2-.5-.3-.8-.2-.2,0-.4.1-.5.2-.2.1-.2.2-.2.3s.1.2.3.2.2,0,.3.1.1.3,0,.9v.2c-.1,0-2.1.7-2.1.7-.2-.2-.3-.5-.6-.7,0,0-.2-.2-.3-.2h-.1c-.1,0-.2.1-.1.4v.8l-.8.3c-.2.1-.4.2-.6.2h0c-.2,0-.3,0-.4.1,0,0-.1.1,0,.3.1.2.4.3.7.4.4.1.8.1,1.1-.1,0,.3.1.5.2.8.1.2.2.4.3.4s.2-.1.3-.3c.1-.4.2-.9.2-1.4.5-.3,1.1-.5,1.7-.7h0c-.4,1.2-.8,2-1.2,2.6-.7.2-1.3.4-1.7.6-.3.1-.6.2-.8.2h-.8s0,.2.1.3c.1.1,0,0,0,0,.3.3.6.5,1.1.5h0c.3.1,1.2-.3,1.9-.6,0,0-.1.1-.2.2-.9,1-1.4,1.8-1.8,2.3l-.6.9c-.4.4-.8.8-1.2.9-.2.1-.3.1-.3.2h0c0,.2.2.3.4.3h.1c.2,0,.5-.1.7-.2.4-.2.8-.5,1.2-.8.3-.3.5-.7.9-1.3,1.4-2.3,2.8-3.5,4.4-3.5h0ZM143.2,20.6h0Z"/>
    <path class="cls-6" d="M140.7,22.1c-.1,0-.2.1-.2.2-.7,1.4-1.3,2.3-1.7,2.8-.3.4-.4.4-.5.4,0,0-.1-.1-.2-.1-.1-.3,0-.9.2-1.5,0-.1.1-.4-.1-.4h-.1c-.2,0-.2.2-.3.3-.6,1.3-.7,2.2-.4,2.7h.1c.2.4.5.6.8.6h.1c.2,0,.5-.1.8-.4.2-.4.6-1.3,1.1-2.7,0,0,.4-1.2.5-1.3.1-.3,0-.3,0-.3v-.3h-.1Z"/>
    <path class="cls-6" d="M148.2,26.9h0c-.2,0-.4.1-.6.1-.8.4-1.6.5-2.3.2,0,0-.2-.1-.3-.3-.1-.1-.2-.4,0-1.4.2-1.1-.2-1.4-.5-1.5-.2-.1-.3,0-.4,0h0v.7c0,1.4,0,2.2.3,2.6h.1c.4.6.9.9,1.6,1h.5c.8,0,1.5-.1,2.2-.3.2-.1.3-.3.3-.4s-.1-.3-.3-.5c-.1-.2-.3-.2-.5-.2h-.1Z"/>
    <path class="cls-6" d="M138.2,16.6c0,.1.3,0,.3,0h0c.3-.2.4-.2.5-.2,0,0,.1,0,.1.3h0c-.1.4-.2.6-.4.8,0,.1-.2.2-.1.4h0c0,.1.2.2.3.1s.8-.7,1-.9c.2-.2.3-.3.4-.4.1-.2.1-.3,0-.5,0,0-.1-.2-.4-.4-.2-.1-.4-.2-.5-.2h0c-.2,0-.4.1-.7.3l-.6.4s-.1.1,0,.3h0Z"/>
    <path class="cls-6" d="M167.9,16c-.9-.6-2.4-.4-4.4.5h0c.1-1.1,0-1.9-.3-2.4-.1-.3-.3-.4-.5-.7-.3-.3-.7-.4-1.2-.4s-.4.1-.5.2c0,.2.2.4.3.4.4.2.7,1,.7,2.4v1.1c-1.1.5-2.2,1.2-3.5,2.2-.2.2-.4.3-.4.3,0-.1-.1-.2-.1-.3,0-.5-.1-.9-.2-1.1-.1-.2-.2-.3-.3-.3s-.2,0-.2.2c-.1.4-.4,1-.8,1.7-.4.5-.4,1.1-.1,1.5l.6.7h0c.2.1.4.2.6.1.2,0,.3-.1.4-.3.7-1.5,2-2.8,4-3.8v3.1l-1.1.3-.8.2c0,0-.1,0-.2-.1-.1-.2-.3-.3-.5,0-.1.2-.1.5,0,.8.1.2.2.3.4.4s.3,0,.7-.1c.5-.3,1-.5,1.5-.5,0,2.6,0,5,.2,7.3,0,.1,0,.4.3.4h0c.1,0,.2-.2.3-.6.3-2,.5-4.1.5-6.2v-1.2c.9-.3,1.5-.4,1.8-.4s.4-.1.4-.2c.1-.2.1-.3,0-.4l-.3-.3-.7-.6,2.8-1.7h.1c.4-.4.7-.7.8-1s.1-.5,0-.6c.1-.3,0-.4-.3-.6ZM164.2,19.6c-.1,0-.2-.1-.3,0-.1,0-.1.1-.1.1v.3c.2.4.2.5.2.5,0,0-.1.1-.7.3v-3.4c1-.4,1.9-.7,2.9-.9h.5s0,.1-.1.3c-.6,1-1.4,1.9-2.4,2.8h0Z"/>
    <path class="cls-6" d="M187.5,27.6c-.6-.7-1.3-1.1-2.1-1.3-1.6-.5-3.4-1.6-5.2-3.1h0c.6-1.3,1.1-2.2,1.5-2.7h.1c.5-.8.6-1.4.5-1.8h-.1c0-.1.9-.2.9-.2.9-.1,1.5-.1,1.6-.1.2.1.4,0,.5-.1s.2-.3,0-.6c-.1-.2-.4-.4-.7-.5-.4-.1-.8-.1-1.1,0-.6.2-1.7.5-3.6.9-.9.2-2.3.6-4.6,1.2-.5.1-.8.2-1,.2-.3,0-.4,0-.5.1,0,.1-.1.1,0,.3.1.3.5.4.9.6.6.2,1.3.1,1.9-.2,1.4-.7,3-1.2,4.7-1.5-.1.6-.7,1.9-1.7,3.9-1.1-.8-1.8-1.3-2.3-1.3-.5-.1-.5.2-.5.2,0,.1,0,.3.3.4.5.2,1.2.6,2,1.4-1.2,1.9-2.7,3.1-4.6,3.5-.3.1-.4.1-.6.1s-.4,0-.3.1c0,0,0,.1.2.3.9.3,2,.1,3.3-.5h.1c1-.5,1.8-1.4,2.6-2.8,3.9,3.9,4.4,4,4.6,4.1.6.2,1.3.3,2,.3h.8c.3,0,.4-.1.5-.2.2-.4,0-.6,0-.7h0Z"/>
    <path class="cls-6" d="M178.8,14.8c.2.2.6.5,1,.7.1,0,.1.1.1.1l-.7.6c-.1.1-.1.3-.1.3,0,.1.1.1.2.1s.1,0,.2-.1c.4-.3.8-.5,1.3-.4.4,0,.7,0,.9-.2s.2-.4.2-.5c0-.2-.2-.4-.4-.5-.3-.2-.9-.3-1.6-.3s-.8-.2-.9-.2-.3,0-.4.1c0,0,0,.2.2.3h0Z"/>
    <path class="cls-6" d="M203,24.8c-1.3-.6-2.5-.9-3.7-.9h-.4c-.1,0-.4,0-.4.2s.1.2.3.2c1.4.2,2.6.8,3.7,1.8.1.1.2.2.2.2h-.7c-.3,0-.4.1-.4.2h0c0,.2.2.2.4.3.8.2,1.6.5,1.8.6s.3.2.4.2.2,0,.3-.1c.2-.2.2-.4.1-.9-.1-.6-.6-1.3-1.6-1.8h0Z"/>
    <path class="cls-6" d="M198.8,20c1.5-.3,2.7-.3,3.6.1.3.1.6.1.8,0s.3-.3.3-.6-.3-.5-.9-.9c-.1-.1-.3-.1-.7-.1-.6,0-1.6.1-2.9.4.2-1,.4-1.7.5-2,.3-1,.3-1.7,0-2.1h0c-.2-.2-.4-.4-.7-.4s-.5,0-.7.1-.4.4-.5.7c0,.1,0,.2.1.3h0c.1,0,.2,0,.3-.1.2-.2.3-.3.4-.3h.1c.1.6,0,1.9-.4,4-.9.2-2.1.6-3.7,1.3-.4.2-.7.1-.9-.1s-.4-.2-.5-.1-.1.2,0,.3c.1.3.2.6.4.8.4.4.8.5,1.3.4.2-.1.5-.2.7-.4.7-.6,1.5-1,2.5-1.2-.5,2.3-1.2,3.9-2.1,4.8-.7.7-1.4,1.3-2.3,1.8l-.7.3-.4.2c0,.1.5.2.5.2h0c1.1,0,2.3-.6,3.6-1.7h.1c.4-.5.7-.9,1-1.4.6-.9,1-2.4,1.3-4.4h-.1Z"/>
    <path class="cls-6" d="M212.7,17.6c-.1.6,0,1.2.2,1.6.2.3.3.4.4.4h0c.1,0,.2-.2.2-.5.1-.4.1-.8,0-1v-.6c0-.6-.2-1.2-.6-1.8-.1-.1-.2-.2-.4-.1-.1.1-.2.2-.1.4.4.4.4.9.3,1.6h0Z"/>
    <path class="cls-6" d="M211.7,20.1c-.1,0-.3.1-.3.1h0c-.2.2-.5.6-.7,1.2-.2.5-.3.9-.3,1.3s.1.4.1.6c.1.3.3.4.5.4h0c.2,0,.4-.1.5-.6v-.8c-.1-.7,0-1.3.1-1.7.3-.2.4-.4,0-.5q0,0,0,0h0Z"/>
    <path class="cls-6" d="M222.1,19.5c-.5-.2-1.2-.3-2-.3.3-.6.8-1.9,1.2-3.9.1-.6.1-.9-.1-1.2-.1-.2-.3-.4-.5-.6h0c-.4-.1-.9,0-1.3.2-.6.4-1.3,1.1-2,2l-.2.2h-.1c0,0-.1,0-.2-.1h-.2c.3-.6.5-1.1.6-1.5,0,0,0-.2.9-.5h.2c.2,0,.2-.2.2-.2,0-.2-.2-.3-.2-.3-.1-.1-.3-.1-.6-.1s-.3.1-.5.1c-.1-.2-.3-.3-.5-.4-.2-.1-.4-.2-.6-.1-.2,0-.3.1-.4.2v.2c.1.1.2.1.3.1s.1,0,.2.1c.1.1.1.3.1.5-.5.4-.9.9-1.4,1.6,0-.3-.1-.6-.3-.8-.3-.4-.4-.5-.5-.5h0c-.1.1-.1.2-.1.5s0,1-.1,3.3c0,1.4,0,1.9.1,2.1-.3,0-.6.2-1,.3-.1.1-.4.1-.9.2-.1,0-.2,0-.3.1,0,0-.1.1-.1.2,0,.2.2.3.4.3.6.1,1.2.1,1.7-.2.2-.1.8-.4,2.8-.9,1.7-.4,3.1-.5,4.1-.3h.3c.2.2.3.3.3.3,0,0,0,.1-.1.2-.1.1-.2.2-.5.4-.3.2-.8.4-.7.5,0,.1.1.2.4.2h.2l1.9-.2c.3,0,.5-.1.6-.2s.2-.3.1-.5c0-.2-.5-.6-1.2-1h0ZM217.7,16.2c.2-.2.4-.4.5-.6.1.1.2.1.3.1s.1,0,.2.1c0,0,.1.2-.1.9-.2.6-.4,1.2-.7,1.4-.1.1-.1.3-.1.3.1.1.2.1.4,0,.7-.5,1.2-1.2,1.5-2.3h0v-.2c-.1-.2-.2-.5-.5-.7-.2-.1-.3-.2-.4-.2h-.3c.3-.3.6-.6.8-.7.4-.3.7-.4.9-.3,0,.1.1.4-.1,1.6-.4,2-.7,2.4-.8,2.4,0,0-.1.1-.4.1h-.2c-.1.1,0,.3.2.4.1.1.2.3.2.5h-.2c-1.3.1-2.7.3-4.1.8v-3.5c.3-.4.8-.9,1.3-1.4-.1.3-.1.6-.3.8h-.1c-.1.2-.1.3-.1.4h0c0,.1,0,.2.1.2s.3-.1.3-.1h.1c0,0,0-.1.1-.1.1,0,.1.1.1.1-1.2,1.7-1.3,2.2-1.3,2.4h0c0,.1.1.2.2.3.1.1.4.2.6.2h.1c.3,0,.6-.3.9-.7.5-.7.6-1.4.3-2.2.5.5.5.3.6,0ZM216.3,18.9h-.1c0,.1-.1.1-.1.1h0c0-.1.2-.5.7-1.3,0,.4-.3.8-.5,1.2h0Z"/>
    <path class="cls-6" d="M220.4,24.4c-.3-.1-1-.1-1.8,0-.3,0-.6.1-1.2.2-.1-.4-.3-.7-.5-.8.7-.3,1.3-.8,2-1.5.1-.2.3-.3.2-.5,0,0-.1-.3-.2-.5h-.1c-.2-.3-.4-.4-.6-.4h0c-.2,0-.5,0-.8.2-2,.7-2.9.9-3.2.9h-.1c-.2-.1-.4,0-.4.1-.1.1,0,.2.1.3.1.2.2.3.5.4.2.1.5.2.9.2h0c.2,0,.4-.1.7-.3.7-.4,1.3-.7,1.8-1h0c-.3.7-.7,1.2-.9,1.5s-.3.3-.4.4h0c-.3,0-.3.2-.3.2,0,0,.4.2.7.8-.9.1-1.9.3-2.8.6l-.7.2c-.2,0-.3,0-.3.1s-.1.1,0,.2c.2.3.5.4,1,.4l2-.5,1-.2c.1,1.1-.1,2-.6,2.4-.4.3-.8.5-1.4.5h-.3c-.2,0-.3.1-.3.2s0,.2.3.3c.4.2.9.3,1.3.3s.7-.1,1-.2h.1c.4-.2.6-.6.8-1.2.1-.5.1-1.3-.1-2.4.4-.1,1.1-.1,2-.1.8.1,1.2,0,1.3-.2s.1-.3,0-.4c-.2,0-.4-.1-.7-.2Z"/>
    <path class="cls-6" d="M231.6,19.9s-.1,0,0,0c-.3-.1-.4,0-.5.1,0,0-.1.1,0,.2,0,.2.2.3.6.4.3.1.7.1,1.3-.1.4-.2.8-.3,1.2-.4-.1.2-.1.4-.3.7l-1,.2c-.2-.1-.3,0-.3,0v.2c.1.1.2.3.3.4.2.1.3.2.5.2h.4c1.1-.6,2.1-.9,2.9-.8.2,0,.3.1.4.2.1.2.2.8-.2,2.3-.2.8-.4,1.1-.5,1.1h-.1c-.1.1-.2.1-.2.1v-.2h0c-.1-.1-.2-.2-.5-.3-.5-.2-1.3,0-2,.5h-.1c-.1.1-.2.2-.3.3v.2s.2.3.3.2c.1,0,1.2-.2,1.2-.2h1c0-.1.1-.1.1-.1.3.4.6.6.9.6h.1c.6-.3,1-1.2,1.3-2.8.1-.5.1-1-.1-1.4-.2-.5-.6-.9-1-1-.6-.1-1.4-.1-2.3.2.1-.2.2-.4.2-.5h0c.9-.2,1.7-.3,2.1-.3s.4,0,.5.1.3,0,.4-.1c.1-.1.2-.2,0-.5-.1-.2-.3-.3-.5-.4-.3-.1-.6-.1-.8,0l-1.5.3c-.1-.1-.1-.2-.3-.3h-.1c0-.1,1.3-.5,1.3-.5.2,0,.3-.1.3-.3h0v-.3h-.1l.5-.4.5-.4c.1-.1.2-.3.2-.5s-.1-.3-.3-.4c-.2-.2-.4-.3-.5-.3h-.4l-2.4,1.1c-.3.1-.5.2-.6.2h-.1l-.4-.3c-.1-.1-.2-.1-.3-.1h-.1c-.1.2,0,.3,0,.4v.4c.1.6.2,1.1.5,1.5.1.1.2.2.3.2h0c.1,0,.2-.2.2-.3h.7c0,.1,0,.2.1.4-.5.1-1.2.2-2.2.5,0-.1-.2-.1-.3-.1h0ZM234.3,17.4c.6-.3,1.1-.5,1.4-.6,0,0,0,.1-.1.2l-.5.8h0c-.8.4-1.4.7-1.6.7v-.9c.3,0,.6,0,.8-.2h0Z"/>
    <path class="cls-6" d="M229.6,16.7h0c-.2.1-.2.2-.2.6.1.6.2,1.2.1,1.7l-.2,4.1v3c0,.3.1.6.3.8.1.2.2.4.4.4.4,0,.4-.6.4-.8v-3.2c0-.7,0-1.5.1-2.2.1-1.9,0-3.1-.3-3.6-.3-.7-.4-.8-.6-.8Z"/>
    <path class="cls-6" d="M240,15.5c-.4-.7-1-1.2-1.8-1.4-1.2-.3-2.8-.1-4.8.5-.5.1-1,.3-1.7.6-.4.2-.8.3-1,.4-.3,0-.3.2-.3.3s0,.3.4.4c.5.1,1,.1,1.4-.1,1.3-.8,2.9-1.2,4.7-1.2h.5c.7,0,1.2.3,1.4.7s.5,2.2.3,9l-.2,1.9s0,.2-.1.2h-.3l-.5-.2h0c-.3-.5-1-.7-2-.6-2,.3-3.5.5-4.5.8-.2,0-.3.1-.3.2v.2c0,.2.2.3.5.3.5.1,1.1.1,1.5,0,.9-.3,1.8-.4,2.8-.4s1.1,0,1.7.1h.2c.3.2.5.5.7.8.3.6.5.8.8.8s.3-.1.8-.9c.3-.6.4-1.3.4-2v-.5c.1-1.6.1-4.4,0-8.1-.3-.7-.5-1.3-.6-1.8h0Z"/>
    <path class="cls-6" d="M232,21.7h0c-.2.1-.2.3-.2.5,0,2.2.2,2.5.2,2.6h.1c.1.2.2.4.3.4.3,0,.3-.4.3-.7v-1.1c-.1-.5-.2-.9-.4-1.2-.1-.5-.2-.5-.3-.5h0Z"/>
    <path class="cls-6" d="M236.3,21.9l-.2-.3h0c-.1-.1-.3-.1-.5-.1s-.3.1-.5.2c-.4.3-.7.5-1,.6h-.3c0,.1-.1,0-.1,0,0,0-.1-.1-.2-.1,0,0-.1,0-.2.1h-.1v.3c.1.2.1.4.1.6-.1.4.1.6.2.7.2.2.3.3.4.3h.1c0-.1.9-.2.9-.2h.3s.2-.1.2-.2.1-.3,0-.3-.2-.1-.2-.1c1.2-1.2,1.1-1.4,1.1-1.5ZM235.1,22.4l-.3.6h-.3c-.1.1-.2.2-.2.2,0-.2-.1-.4-.1-.5.2,0,.6-.1.9-.2h0q0-.1,0-.1Z"/>
    <path class="cls-6" d="M257.4,16.3h-.8c0-.2-.1-.5-.4-.9-.3-.5-.6-.7-1.2-.7s-.8,0-1.3.1c0-.5-.2-1-.6-1.3-.3-.3-.7-.4-1.1-.4s-.4.1-.5.2c0,.2.2.4.3.4.3.1.5.7.5,1.5l-2.1.5c-.3-.1-.4.1-.4.2,0,.2.1.3.3.4.5.3,1.1.3,1.7,0,.2-.1.3-.1.5-.2v1c-1.4.2-2.9.7-4.4,1.3-1.1.4-1.7.6-1.9.6s-.4,0-.4.3v.2c.1.1.2.1.4.2,1.1.1,2,.1,2.5-.3.7-.6,1.8-1,3.3-1.4h.5c0-.1,0,.9,0,.9l-1.8.5h-.5c-.2.1-.3.1-.4.2,0,0-.1.1,0,.2.1.2.3.3.6.4.4.1.7.1,1.1,0,.2-.1.6-.3.9-.4v1c-1.1.3-1.9.4-2.3.3-.4-.1-.5.1-.5.2s0,.3.3.5c.2.2.5.3.9.3s.3,0,1.6-.5v.2s-2.6,1.5-2.8,1.7h-.1c-.1.3-.1.6,0,.8s.3.3.5.3h.4c.5-.2,2-.7,5.1-1.6h.3c.5-.1.7-.2.8-.4.1-.4-.4-.6-.6-.7l-.7-.3c-.1-.1-.2-.1-.2-.1h-.2c0,.2,0,.3.1.5h-.1c0,.1-.1.2-.7.4l-1.1.4v-.6h.1c.4-.2,1.7-.9,2-1.1,0,0,.2-.1.3-.1.1-.1.2-.2.2-.2v-.3h0c-.1-.3-.2-.4-.4-.5s-.4,0-.6,0l-1.1.5v-.9c.8-.2,1.4-.3,1.6-.3h.2c.2.1.4,0,.4-.1.1-.1.2-.2,0-.5-.1-.1-.2-.2-.4-.3.3-.3.6-.6.9-.9.7,0,1.4.1,2.1.3.3.1.6.1.7-.1.2-.1.3-.4.1-.6-.4-.6-.9-.8-1.6-.8h0ZM254.4,17.6c-.2.4-.4.7-.6.9h-.2c0,.1.1-.8.1-.8.1-.1.4-.1.7-.1ZM253.6,16.8v-1.1c.7-.2,1.2-.3,1.4-.2.1,0,.1.1.2.2l-.3.9-1.3.2h0ZM252.3,23l-1.2.4s-.1,0-.1.1l1.3-.8v.3ZM255.5,19h0Z"/>
    <path class="cls-6" d="M255.7,23.6c-.7-.2-1.8.2-3.3,1-.4.2-1,.6-1.7,1.2h-.1c.1-.3.1-.6.1-.9s-.1-.3-.2-.3-.2.1-.3.3l-.4.6c-.5.8-.6,1.6-.1,2.2.2.2.3.3.5.4h.1c.1,0,.3-.1.4-.4,0-.8.7-1.6,1.9-2.4h.1c.8-.5,1.6-.9,2.3-1h.4s.2.1.2.2c.1.2.1.8-.9,2.5-.2.2-.1.3-.1.4h.1c.1,0,.2-.1.6-.3.5-.3,1.1-.7,1.4-1.1.2-.3.3-.5.3-.8s-.1-.5-.3-.8c0-.2-.4-.7-1-.8h0Z"/>
    <path class="cls-6" d="M254.4,27.9c-.2-.1-.8,0-1.7.1,0,0-.5.1-1,.1s-.3,0-.3.1c-.1.1,0,.2.1.3.3.3,1.1.5,2.2.5h.7c.2,0,.3-.1.4-.2.1-.2.1-.3,0-.5,0-.2-.1-.3-.4-.4Z"/>
    <path class="cls-6" d="M251.8,27.7h0v.2h.3c.2-.1.7-.4,1.3-1l.4-.4c.1-.1.1-.2.1-.4s-.3-.3-.5-.3c-.4-.1-.8,0-1,.2-.1.1-.1.2-.1.2,0,0,0,.1.1.1h.1c0,.2-.1.6-.7,1.4q0,0,0,0h0Z"/>
    <path class="cls-6" d="M268,17c.5.2.7.3.8.4h-.2c-.2.1-.3.3-.3.3,0,0,.1.1.2.1h.2c.3-.1.8,0,1.2.1.4.1.5,0,.5-.1.1-.2,0-.5-.2-.7s-.5-.4-.8-.5c-.4-.2-1.3,0-1.3,0,.1-.5,0-1-.3-1.5-.2-.3-.4-.4-.5-.4h-.1c-.1,0-.3.2-.1.5.1.3,0,1.2-1.5,3.6-.6.9-1.2,1.7-1.8,2.3-.2.2-.3.3-.2.4,0,.1.1.1.2.1s.1,0,.3-.2c1.5-.9,2.8-2.4,3.9-4.4h0Z"/>
    <path class="cls-6" d="M269.2,23.9h0c-.2,0-.3.1-.3.1-1.4,1.9-2,2.3-2.4,2.4h-.2s-.1,0-.1-.3c-.2-.9-.1-1.9.1-3.2.1-.5.2-.8.3-1h0v-.5s-.2.1-.3.2h-.1c-.5.8-.8,1.9-1.1,3.3-.1.7-.2,1.2-.1,1.5.1.6.3,1,.8,1.2.2.1.4.2.6.2h.2c.5-.1,1.1-.6,1.6-1.6l.9-1.9c.1-.1.1-.2.1-.2v-.2Z"/>
    <path class="cls-6" d="M277.7,16.8c-.2-.5-.7-.8-1.2-.8s-1.6.2-2.9.8c0,0,.1-.2.2-.3.3-.4.5-.9.4-1.3,0-.2-.2-.4-.4-.5-.3-.2-.6-.2-.9-.3-.1,0-.2-.1-.3-.1-.1-.1-.2-.1-.3-.1h-.2v.4c.1.3.3.6.5.7.1.1.2.3.4,1.2,0,0,0,.2.1.3h.2c-.5.2-1.1.5-1.7.8h-.1c-.1.1-.2.2-.3.2v-.7c0-.2-.1-.2-.2-.2s-.2.1-.3.3c-.1.3-.4.6-.8.9-.3.4-.4.8-.3,1.1.1.1.2.3.3.4.1.1.2.2.3.2h.1c.2,0,.3-.2.4-.5.6-1,2.1-1.8,4.3-2.5.3-.1.5-.1.7-.1h.2s0,.1-.1.2c-.1.2-.3.5-.6.7-.4.4-.5.5-.5.6h0c.1.2.3.2.5.1.7-.4,1.2-.6,1.5-.6s.5-.1.6-.3c.5-.2.5-.4.4-.6h0Z"/>
    <path class="cls-6" d="M269.2,22.1c-.6-.2-.9-.4-1-.7-.1-.2-.1-.5.1-.9s.4-.7.7-1c0,0,.1-.1.1-.2h0c0-.2,0-.3-.1-.5-.1-.1-.2-.2-.4-.2-.4,0-.8.1-1,.4s-.6.5-1.2.7c-.2.1-.3.2-.2.3.1.2.2.2.3.2h.9c0,0,0-.1.1-.1v.2c-.2.8.1,1.6.8,2.1h0c-.3.1-.7.2-1.2.3-.1,0-.2.1-.2.1h0c0,.2.1.3.3.3h.4c.7,0,1.3,0,1.8-.1.2-.1.4-.1.4-.2.1-.1.1-.3,0-.5-.2.1-.3,0-.6-.2h0Z"/>
    <path class="cls-6" d="M275.8,24.1c-.5.1-.9.3-1.2.5-.2.1-.3.2-.3.2l.2-.2c.8-.8,1.8-1.9,1.9-2.2,0-.1,0-.3-.1-.4s-.3-.2-.5-.2c-.3,0-.6.1-1.1.4-.2.1-.3.2-.4.2,0,0,.1-.1.1-.2l.7-.9c.3-.4.8-.9,1.1-1.4.2-.3.2-.5.1-.6-.1-.2-.3-.3-.5-.3h-.1c-.4,0-.8.2-1.3.7-.2.2-.6.5-1.2.8-.5.3-.6.4-.6.5s.1.1.2.1h.1c.2-.1.7-.3,1.4-.6.1-.1.2-.1.3-.1-.1.2-.4.7-1.7,2.5-.2.2-.2.4-.1.5s.3.1.5,0l1.2-.5h.2s0,.1-.2.2l-1.9,2.1-.4.4h0c0-2.1.1-3.5.2-4.4,0-.3-.1-.6-.3-.9-.2-.3-.3-.4-.5-.4h-.1c-.2.1-.2.3-.2.4.1,2.1-.1,4-.5,5.8-.2.5,0,1.1.5,1.7h0c.1.2.3.3.4.3h0c.1,0,.3-.1.3-.4v-.7c.1-.3.1-.6.1-.9.1.1.4.1.9-.2.9-.5,1.5-.9,2-1,.1-.1.2,0,.2,0,0,.1-.2.3-.7,1.1-.4.6-.9,1-1.4,1.2-.3.2-.3.4-.2.5.1.1.2.2.4.2h.2c.3-.1.7-.2,1.1-.4.4-.2.6-.3.9-.3s.3-.2.3-.5-.1-.3-.3-.4c0,0-.1,0-.1-.1,0-.1,0-.3.6-1.2,0,0,.3-.4.3-.6s-.1-.1-.1-.1c.1-.2,0-.2-.4-.2Z"/>
  </g>
  <g>
    <path class="cls-5" d="M42.2,41.2c.3,0,1.9-.6,2.5-.9,3.3-1.8,6.2-4.1,8.1-7.4,1.5-2.6,1.6-5.9,1.9-8.8.3-3.8.3-7.6.2-11.5,0-.3-5.5-.9-6.1-.9-2.2-.2-5.2-.3-6.7-.3s-4.5.1-6.7.3c-.6.1-6,.7-6,.9-.1,3.8-.1,7.7.2,11.5.2,3,.3,6.2,1.9,8.8,1.9,3.3,4.8,5.7,8.1,7.4.7.3,2.3.9,2.6.9Z"/>
    <path class="cls-1" d="M49.7,27.1h0ZM49,27.6h0ZM53.3,20.6v-.2s.8-.3.9-1.1v-.4h0c0,.1-.5.5-.7.4h0v-2.3c.2-.1.7-.5.7-1.2v-.3h0c0,.1-.4.5-.6.5h0c-.2-1.9-.5-2.7-1.2-3h0c0,.2.3.5.3.8v2.1c0,.2-.2.3-.4.3-.4.1-.8-.3-.9-.7h0v.2c0,.4,0,1,.3,1.2,0,.1.3.1.5,0,0-.1.2-.1.2-.1h0c0,.5-.3.9-.5,1.3,0,.1-.2.1-.3.1-.4,0-.8-.5-.9-.9h0c-.2.5-.2,1.1,0,1.4,0,.1.3.2.5.1,0-.1.2-.1.3,0h0c-.2.5-.4.9-.7,1.3,0,.1-.2.1-.3.1-.4,0-.7-.5-.8-.9h0s0,.1-.2.1c-.3.4-.3,1,0,1.3,0,.2.3.2.6.1,0-.1.2-.1.3,0h0c-.2.4-.5.7-.8,1.1-.2.1-.4.2-.5.1-.5-.1-.8-.8-.8-1.2h0s0,.1-.2.1c-.4.5-.5,1.2-.2,1.6,0,.1.3.3.6.2h.3c0,.1-.8.8-.8.8-.2.1-.5.2-.8.1-.5-.2-.7-1-.6-1.5h0s-.2,0-.3.1c-.5.4-.8,1.2-.6,1.7,0,.2.2.4.6.4s.3,0,.3.1v.2c0,.1-.2.1-.3.3-.2.3-.3.5-.4.8v1c0,.2,0,.4-.2.6-.5.9-1.6,1.3-2.8,1.5v-1.7c1.4,0,2.1-.7,2.1-2.1s-.4-1.7-1.5-1.7-.4,0-.6.1v-.9c.7-.3,1.5-.7,2.4-.9,2-.5,3.6-1.6,4.1-2.7,0-.2,0-.3.2-.5,0,.1-1.4.9-2.4,1.1h0s-.3.1-.3,0h0c0-.6.3-1,.8-1.3h0c1.2-.5,2.1-.9,2.6-1.5,0-.2.2-.3.2-.5,0,.1-1.5.8-2.4.9h-.4v-.3c0-.4.3-.6.6-.8s.7-.4,1.1-.5c.6-.3,1.2-.5,1.4-.8h0v-.3l-1.3.4h-.3c-.4.2-.8.3-.9.2v-.2c0-.2,0-.3.2-.5.5-.7,1.5-1.4,2.6-1.2h.3s0-.1-.2-.1c-.9-.3-1.7-.3-2.5.1-1.4.7-2.5,2.6-3.3,5.6-.5,1.7-1.5,2.3-2.6,2.8v-3.8c.4-.2.7-.4,1-.7.8-.8,1.1-1.9.8-2.8-.3-.7-.9-1.2-1.6-1.3h-.2v-.6c-1.4,0-4.2.1-6.4.3-1-.3-6,.2-6,.5v3.9c0,2.4.1,4.8.3,7.2v.9c.3,2.6.5,5.3,1.8,7.6,1.6,2.9,4.2,5.3,7.8,7.1.2,0,1.2.6,2.1.8h.3v-4.1h3.5c.5-.2.8-.5.8-1s0-1.2-.5-1.5h-.2v.6c0,.3,0,.4-.3.6-.5.4-1.4.4-1.4.4h-2.1c.6,0,1-.6,1.2-.9.5-.8,0-1.4,0-1.5h.2-.2.7-.5c2.2,0,2.7-2.1,2.9-3.2v-.2c0-.3.3-.9.8-1,.3-.1.5-.2.7-.3h.2c.3-.1.3.1.3.3h0c.2,0,.4-.5.4-.7h0c.3,0,.3.2.3.3h0c.2-.1.3-.5.3-.7h0c.4,0,.4.2.4.3h0c.2-.1.2-.5.2-.7h0c.2,0,.3.2.3.3h0c.2-.2.2-.6.2-.8h0c.2,0,.3.2.3.3h0q0,0,0,0c.2-.2.2-.7,0-.9.3-.4.5-.7.6-1v-.2.2c0,.6-.2,1.3-.3,2.1h0v.3h0c0-.1-.4-.1-.4-.1h0c0,.2.2.5.2.7h0s-.4,0-.4.1h0c0,.2.2.5.2.8h-.4c0,.2.2.6,0,.8h0s-.3-.1-.4,0h0c.2.3,0,.8,0,.9-.7,1.6-1.5,2.4-2.4,2.4s-1.1-.6-1.1-1c0-.6.6-1.1.9-1.2.3-.1.4,0,.5.1.2.3.2.4,0,.5,0,.1-.3.2-.4.2-.2,0-.4,0-.4.2v.4c.2,0,.5.2.7,0,.4-.2.7-.5.7-.8s0-.7-.2-.9c-.4-.6-1-.8-1.5-.5-.9.5-1.3,1.1-1.4,1.7,0,.6.3,1.1.9,1.7.8.7,2,.3,2.6-.3h0s.8.3,1.4-.3c0,0,0-.2.2-.3h-.8v-.2c.4-.5.7-1.1,1-1.8,0,0,.8-.1,1.1-.8v-.4h0c-.2.1-.6.4-.8.2v-.2c.2-.6.3-1.2.5-2,.2,0,.8-.2,1-1v-.3h0c-.2.1-.6.4-.8.3h0c0-.7.2-1.4.3-2.1,0,0,.9-.3.9-1.3h0s-.5.4-.7.3h0v-2.6l.8-.2ZM42.2,13c.7.2,1,.8,1,1.4s-.5,1.2-1,1.3v-2.7ZM42.2,23.8h.3c.6,0,.9.3.9,1s0,1-1.2,1v-2ZM45.2,29h0c-.4.7-.9,1.1-2.3,1.1h-.8v-.7h.7c1.1,0,1.8-.1,2.1-.4,0-.1.2-.1.2-.1.2,0,0,.1,0,.1h0ZM52.5,18.4v.3c-.3,4.5-1.7,6.2-3.1,7.2h0c-.4.3-.9.7-1.8,1h0c-.2.1-.7.2-.8.4,0,.2-.2.2-.2.2v-.4c0-.2.3-.3.6-.4.6-.3.7-.6.7-.8,0-.3-.2-.5-.5-.6-.2-.1-.4,0-.5.1,0,0,.2.1.2.3,0,.3,0,.5-.3.5s-.4-.1-.5-.4c0-.5.2-.8.3-.9.2-.1.3-.2.5-.2h.3c.4-.2.7.1.8.2h0v-.7h0c.4-.1.6.2.7.3h0s0-.6-.2-.8h0c.4-.1.6.1.7.2h0s0-.5-.3-.8h0c.4-.2.6-.1.7,0,0,0,0,.1,0,0h0c0-.1,0-.6-.3-.8h0c.3-.2.5-.1.6-.1h0c0-.1-.2-.5-.3-.7h0c.3-.2.5-.1.6-.1h0c0-.3-.2-.6-.3-.7h0c.3-.2.5-.2.6-.2h0c0-.1-.2-.4-.3-.5.3-.6.5-1.1.7-1.6l.2-.6c.2,0,.2.2.2.6h1ZM48.9,23.6h0ZM51.2,20.8h0ZM51.3,28.4h0q0,0,0,0h0ZM49.6,15.8h0ZM50.1,13.9h0ZM48.9,18.1s0,0,0,0q0,0,0,0h0ZM42.5,35.2h-.3.3ZM51.1,26s0,0,0,0t0,0s0,0,0,0ZM51,29.3h0s0,0,0,0h0ZM51.5,27.6h0ZM51.8,26.8s0,.1,0,0q0,0,0,0c0,.1,0,0,0,0ZM50.4,26.6h0Z"/>
    <path class="cls-5" d="M41.8,15.7v-.7c0-.7-.6-1-1.1-1s-1.1.3-1.1.8v2s0,.1-.2.1-.3-.1-.3-.3v-1c0-1.1-1.2-1.3-2-1.3s-2.2.5-2.2,1.3v4.5c0,.2,0,.4-.3.5,0,.1-.2.1-.3,0,0,0-.2-.2,0-.4h0q0-.1,0,0v.9c.2.3.5.5.7.6v.6h0c-.7,0-1.5-.3-1.5-1.6v-6.1c0-.9-.4-1.3-.7-1.4-.6-.2-1.4.2-1.7.7-.3.5-.2,1,0,1.2.2.3.6.4,1,.2,0,0,0,0,0-.1h0c-.2-.1-.4-.3-.4-.5,0-.3.2-.5.5-.5s.5.2.5.5v6.2c-.7,0-.9.6-.9.9,0,.5.4.7.4.8h0c0-.3,0-.4,0-.5,0-.1,0-.1.3-.1s.2.1.2.1c.3.7.9,1.1,2.1,1.2h0v.4c-.3.1-1.1.7-1.1,2.1s.2,2.7.5,2.8h0c.9-.3,2.4-.3,3.1.1,0,.1.2.1,0,.2h0c-.3-.2-1.2-.2-1.5-.3-1,0-3,.3-3.6,1.5-.3.7.4,2.2.7,2.6h0c0-.8,0-1.5.8-2.1.8-.7,2-1,2.7-.7,0,0,.2.1.2.2h0c0,0,0,.1,0,.1-1-.4-2,.2-2,.2.4,2.6,3.5,2.5,5.8,2.4h.8s.9.9.7,1.6c0,.3-.2.5-.6.7-.3.2-1.7,0-1.9,0v-.5c0-.3.3-.8.7-1h-.3c-.8,0-1.4.5-1.6,1.1v.3q0,.3-.4.3h-.2c-.6,0-1,.4-1.1.9,0,.4,0,.8.3,1.1s.5.4.8.4h0c-.4-.2-.4-.5-.4-.8s.3-.4.6-.4h0v.4c0,.8.7,1.4,1.4,1.6h0c-.4-.3-.5-.8-.5-1.3v-.6c.2,0,.7-.2,1,0s.4.5.4.7,0,.2-.3.3h0v.2c.8,0,1-.7,1-1.2h1v-6.4h-2.1c-.5,0-.7.2-.7.4,0,.3.3.6.8.7h0c-.4.1-1.1.1-1.4-.3-.2-.3-.2-.6,0-.9.2-.4.6-.5,1.2-.5h2.2v-.9c-1.1.2-2.3.1-3-.2-1.4-.4-2.5-1.7-2.1-3.2,0-.2.2-.4.5-.7.3-.3.6-.3.7-.3h0c-.5-.7-2.5-.8-2.9-.7h0c-.2-.3-.2-2.2.5-2.7.3-.2.6-.3.8-.2.2.1.3.2.4.5,0,.3,0,.6-.2.8,0,.1-.3.1-.5-.1v-.2h0v-.2h0c0,.6.2,1,.7,1.2.8.3,1.6,0,2.1-.7s.7-1.8.2-2.2h0v.2c0,.6-.4,1.1-.8,1.2-.3.1-.6-.1-.8-.6h0c.3-.1.6-.2.7-.5.2-.3,0-.8-.3-1.1h0c0,.4,0,.7-.3.7s-.5-.1-.5-.3,0-.4.5-.6h0c-.5-.3-1-.1-1.2.3,0,.3,0,.7.3.9h0c.2.3,0,.4-.3.3-.2-.1-.4-.2-.4-.7v-2.9c0-.3.3-.5.7-.5s.7.1.7.4v.5c-.2.1-.4-.1-.4-.1h0v.2c0,.2.3.3.6.3s.4,0,.6-.1v-.9c0-.2,0-.3.2-.3s.2.1.2.2v1.6c0,.8.6,1.1,1.1,1.1s1.1-.4,1.1-1v-1.5c0-.3,0-.5.3-.5s.4.1.5.4,0,.4,0,.6v.2h0c0,.3,0,.4,0,.4h.2c.4,0,.7-.1,1-.3v-1.5h0c-.2.2-.3.2-.4,0l-.6-.2ZM36,25.1c0,.5-.4.8-.9.8s-.9-.4-.9-.8.4-.8.9-.8.9.4.9.8ZM36.5,16.7h0ZM34.6,25.1c0,.3.2.5.5.5s.6-.2.6-.5-.2-.5-.6-.5-.5.3-.5.5ZM40.4,13.1c0,.1-.2.2,0,.3h0c.5-.4,1-.5,1.7-.3h0v-.6c-1.1-.1-1.6.4-1.8.6h0ZM39.5,22.7c-.2.3-.4,1.1-.4,2.2,0,1.8,1.4,2.1,2.9,2.1h.2v-1.2h-.2c-1.3,0-1.8-.1-1.8-1.1s.6-1.7,1.4-2.1l.5-.2h0v-1.4c0,.1-.3.1-.4.2-.7.3-1.6.7-2.2,1.5ZM33.5,28.1h0l-.2-1.4v-.2h-.2c-1.9.6-1.9,1.4-1.8,2.7,0,.1.1.2.2.2h0c0-.1.1-.3.1-.3.5-.9,1.5-1,1.9-1ZM33.5,28.1h0ZM41.1,24.5v.2h0c0-.5.2-.8.8-.9v-.6c-.5.1-1,.6-1.1,1.3h.3Z"/>
    <g>
      <path class="cls-3" d="M65.7,43.7c0-1.1-1.1-2-5.7-.9v-1.2c0-.9-1-1.4-2.9-1.3h-1.8c-1.3-1-1.7-2.6-1.6-4l1.8-2.1c.5-.4-1.2-2.1-2.8-1.6l-3.1,4.1h0c-.8.9-.7,2.7.4,4.5-2.6.4-5.5.8-7.6.8h-.8c-2.1,0-5-.4-7.6-.8,1.1-1.8,1.2-3.7.4-4.6h0l-3.1-4c-1.6-.5-3.3,1.2-2.8,1.6l1.8,2.1c.1,1.4-.3,3-1.6,4h-1.8c-1.9,0-2.8.4-2.9,1.3,0,.2,0,.7-.1,1.2-4.6-1.1-5.6-.3-5.7.9-.1.9-.1,2.8,0,3.5s1.1,1.2,2.2,1.4c2.5.4,7.3,0,11-3.4,2.3.5,5.1,1.2,9.9,1.2h.8c4.8,0,7.6-.7,9.9-1.2,3.7,3.3,8.4,3.8,11,3.4,1.1-.2,2.1-.7,2.2-1.4.4-.7.3-2.5.3-3.5h.2Z"/>
      <path class="cls-5" d="M29,42.1c-.1.2-.3,1.6-.4,1.9h.2c.3-.6.4-1.3.5-2h-.3ZM30.3,42.1c.1.3,0,1.9.2,2.3h.2c.1-.8,0-1.5-.1-2.2h-.3ZM30.8,41.6v-.2c-.5-.5-1.2-.2-1.8-.2s-.1.2-.1.3h.2c.6,0,1.1.2,1.7.1ZM65.9,43.7c0-.5-.2-.9-.6-1.1-.8-.6-2.4-.6-5.1,0v-.9h0c0-.8-.6-1.7-3.1-1.6h-1.7c-.7-.5-1-1.2-1.2-1.8s-.3-1.3-.2-1.9l1.8-2.1s.2-.3,0-.7c-.3-.6-1.6-1.6-3-1.2h0l-3.1,4.1v.2c0,.2-.2.4-.2.6v1c0,.9.3,1.8.8,2.8-2.5.4-5.3.8-7.3.8h-.8c-2,0-4.8-.4-7.3-.8.5-.9.8-1.9.8-2.8v-1c0-.2,0-.4-.2-.6v-.2l-3.1-4.1h0c-1.3-.5-2.7.5-3,1.1s0,.6,0,.7l1.8,2.1c0,.6,0,1.3-.2,1.9-.6.6-.9,1.3-1.6,1.8h-1.7c-2.5,0-3,.8-3.1,1.5h0v1c-2.7-.6-4.3-.6-5.1,0s-.5.6-.6,1.1c-.1.9-.1,2.8,0,3.5.1.8,1.4,1.3,2.4,1.5,2.1.4,7.1,0,11.1-3.4h0c2.3.5,5.1,1.2,9.9,1.2h.8c4.7,0,7.6-.7,9.9-1.2h0c4,3.5,8.9,3.7,11.1,3.4,1-.2,2.2-.7,2.4-1.5,0-.7-.2-2.6-.2-3.5h-.3ZM57.1,40.5c1.2,0,2.7,0,2.7,1.1h0v3.2c-.3-.2-.8-.3-1.3-.4-1.6-.2-2.9,0-4.2,0h0c0-.2-.3-1.8-.2-1.8,0-.2.6,0,.6-.3s-.5-.2-.7-.2,0,0,0,0c0,0,0-.7-.3-.8h-.3c0,.2.2.9,0,.9-.3,0-.6.3-.6.2v-.5c0-.2-.6,0-.6-.2s0-.2.2-.2,0,0,0,0v-.3h.8c.6-.2,1-.3,1.3-.4.5,0,.7,0,2.4-.2h.2ZM59.7,45.7c-.2.2-.8.2-1.3,0h-1.3v-.3c0-.5,0-.8.2-.9h1.3c.6,0,1,.2,1.2.4,0,.2,0,.4,0,.5v.3ZM52.6,42.6q0,0,0,0v.2h0c0,0,0-.2.2-.2h-.2ZM52.3,42.3v-.2h.2c0,.2-.3.3-.3.2h0ZM52.5,43s.4,0,.4-.2,0,0,.2,0h.7s.3,1.6.2,1.8h-.7c0-.7-.4-1.5-.6-1.5s-.2,0-.2,0h0ZM52,41.3h.2c0,.2,0,0-.2,0ZM52.9,32.9c1.1-.3,2.2.5,2.5,1v.2h0s-2.6,3-2.8,3.3c-.5-.7-1.1-1.1-1.7-1.2h-.6c.6-.8,2.4-3.2,2.5-3.3h0ZM49.5,38.5v-.9c0-.3.2-.5.4-.7.3-.2.6-.3.9-.2.5,0,1.1.5,1.5,1.2h.2l.8-.9c0,.5,0,1.1.3,1.6.2.6.5,1.2,1.1,1.8h-.3c-.3,0-.6.2-1.2.3h-.4c-.4,0-.8,0-1.2,0h-.2c-.4,0-.9,0-1.3.2-.6-.9-.8-1.8-.8-2.6h.2ZM51.7,42.3h.2v.2h-.3c0,0,0,0,0,0h0ZM51.5,41.6v-.2h.3v.2h-.3ZM51.7,42.7h.2l-.2.2s0,0,0-.2ZM45.1,43.3h.3v-.4c.4,0,.6.2.7.4,0,0-.6.6-.8.9-.2-.2-.6-.2-.9-.3v-.3c.2.2.4.4.7.4s.7-.6.6-.7c-.2-.2-.4.6-.8.3,0,0-.4-.4,0-.4,0-.2,0,0,0,0h.1ZM38,42.2h1.3c-.3.3,0,1-.3,1.2,0-.2-.2,0-.3,0-.2,0,0,.3,0,.3.2.2.7,0,.5.5,0,.3-.3.5-.5.3-.5-.4-.5-1-.3-1.7v-.5h-.4ZM37.7,42.5s.2,0,.2.2,0,.3-.2.5c0,0-.2-.3-.2-.5,0,0,0,0,.2-.2ZM28.9,34.2h0v-.2c.3-.5,1.4-1.3,2.5-1,.1,0,1.9,2.5,2.6,3.4h-.6c-.6,0-1.1.5-1.7,1.2-.2-.4-2.8-3.4-2.8-3.4ZM30.6,38.6c.2-.5.2-1.1.3-1.6l.8.9h.3c.5-.7,1-1.1,1.5-1.2.3,0,.6,0,.9.2.2.2.3.4.4.7v.9c0,.8-.3,1.8-.8,2.7-1-.2-1.9-.3-2.7-.5h-.4c-.6,0-1-.2-1.2-.3h-.3c.6-.5.9-1.2,1.1-1.7h0ZM18.9,43.7c0-.4.2-.7.4-.9.7-.5,2.3-.5,4.9,0v2c0,.4.1.8.2.9.3.3,1,.3,1.6.3h1.1s.1,0,0,.2c0,.2-.1.3-.2.4-.5.4-2,0-3.1-.3-.5,0-1-.3-1.4-.3-1.3-.2-2.8-.4-3.5,0h-.1c0-.7,0-1.9.1-2.6v.3ZM24.6,45.3c.2-.3.6-.4,1.2-.4h1.3c.1,0,.2.4.2.9v.3c-.3-.2-.8-.2-1.3,0h-1.3c-.1-.2-.2-.4-.1-.5v-.3ZM20.9,48.4c-1.1-.2-2-.7-2.1-1.2,0-.3.1-.5.3-.6.6-.5,1.9-.3,3.2,0,.4,0,.9.2,1.4.3,1.4.4,2.8.8,3.4.3h0c.3-.2.4-.9.4-1.4s0-.6-.2-.9c1.4,0,2.6.2,4,.6-3.7,3.1-8.3,3.3-10.4,3h0ZM37.2,46c-2.2-.3-3.8-.7-5.2-1-.8-.2-1.4-.3-2.1-.5,0-.8.2-1.7.1-2.6h-.3c0,.8-.2,1.7-.2,2.5-1.2-.2-2.3-.2-3.7,0-.5,0-.9,0-1.3.4v-.4c0-.5,0-1.3.1-2.7h0c0-1.1,1.5-1.3,2.7-1.2,1.7,0,1.9,0,2.4.3.3,0,.6.2,1.3.3h.1c.3,0,.5.7.6,1.1,0,.8-.4,1.7,0,2.5h.2c-.2-1,.6-2.2,0-3.2v-.3c1.7.3,3.7.6,5.7.9,0,0-.3.4-.4.6-.3.3,0,.7-.3,1.2,0,.2.2.5,0,.7,0,.3-.7.6-.4.9.2.3.3-.4.5-.4s0,.6,0,.8h.2ZM37.6,43.8s.2.3.3.4c0,0,0,.3-.2.3-.4,0-.5-.6,0-.7h0ZM44.9,46.1h-3.1c-1.6,0-3,0-4.2-.2v-.5c.2,0,.4.2.5,0,.2-.4-.2-.6-.5-.8l.2-.2c.5.3,1.3.4,1.4-.3,0-.6.5-1.3,0-2h5.6c0,.2,0,.4-.2.5-.7,0-.9,1.8-.6,1.8s0-.3.2-.4c0,0,.6,0,.8.3-.2.3-.3.8-.3,1.2v.4l.2.2ZM45.2,46.1h0c0-.5,0-1.1.2-1.3.2-.3.4.2.4.3,0,.2.3.8.3,1h-.9ZM52.3,45c-1.6.4-3.4.8-5.9,1h0s0-1.2-.8-1.7c.2-.2.6-.7.7-.7s0,.4,0,.5h.3c0-.5-.2-1.7-1.4-1.6v-.2h0c1.9-.3,3.9-.6,5.7-.9h0c0,.2.3.3.5.3s0,0,0,.2c0,0-.3,0-.3.4,0,1.1.8.5.8.7s-.4,0-.4.3.6,0,.6,0c0,.3-.7,0-.7.4s.8,0,.8,0c0,.3-.5,0-.4.4h.3c.2,0,.4,0,.6-.3v.7h0c0,.2-.2.3-.5.3v.2ZM63.5,48.4c-2,.3-6.7,0-10.5-3.1,1.4-.3,2.6-.6,4-.6,0,.3-.2.7-.2.9,0,.5,0,1.2.4,1.4h0c.7.5,2.1,0,3.4-.3.5,0,1-.3,1.4-.3,1.3-.2,2.6-.4,3.2,0,.2,0,.3.3.3.6,0,.6-.9,1.1-2,1.3h0ZM65.6,46.4h0c-.8-.7-2.3-.5-3.6-.2-.4,0-.9.2-1.4.3-1.2.3-2.6.7-3.1.3,0,0-.2-.2-.2-.4v-.2c.2-.2.7,0,1.1,0,.6,0,1.3,0,1.6-.3,0-.2.2-.6.2-.9v-2c2.5-.6,4.2-.6,4.9,0,.3.2.4.5.4.9v2.7-.2Z"/>
    </g>
  </g>
  <image class="cls-7" width="2867" height="989" transform="translate(294.7 56.8) scale(.2)" xlink:href="banner-1.png"/>
  <image class="cls-7" width="458" height="458" transform="translate(40.8 -24.2) scale(.2)" xlink:href="banner-2.png"/>
  <g>
    <path class="cls-4" d="M753.8,112.2s1.1.9,1.7,1.5c0,.2-.2.3-.5.3h-5.9v-.5c0,0,3.8,0,3.8,0l.9-1.3ZM749.4,123.7c2.1-.6,4.3-1.9,5.4-2.8l1.9,1.3c-.2.2-.4.2-.9,0-1.5.7-3.9,1.4-6.2,1.7v-.3h-.2ZM749.7,110.3v-.5c0,0,2.5,0,2.5,0l.9-1.2s1.1.9,1.7,1.4c0,.2-.2.3-.5.3h-4.6ZM760.6,121.4v-.5h-7.4v.4c0,0-.5.4-1.4.4h-.3v-7l1.9.7h7.2l.8-1,1.6,1.3c0,0-.3.2-.6.3v4.9s-.6.4-1.4.4h-.4ZM753.2,115.9v1.2h7.4v-1.2h-7.4ZM760.6,117.6h-7.4v1.1h7.4v-1.1ZM760.6,120.4v-1.2h-7.4v1.2h7.4ZM760.5,111c0,.2-.2.4-.6.4,0,.2,0,.5-.2.7.8.7,2.3,1.3,4.9,1.6v.2c-.7.2-1.2.4-1.2,1.2-2.2-.5-3.4-1.5-4-2.5-.5,1-1.8,1.9-5.1,2.5l-.2-.3c3.6-1.2,4-2.4,4.2-4.1l2.1.2h0ZM754.4,112.1c1-1,1.9-2.6,2.3-4.1l2.3.4c0,.2-.2.3-.6.3-.2.4-.5.7-.8,1.1h4.6l.8-.9,1.5,1.4c0,0-.3.2-.7.2-.5.5-1.4,1.2-2,1.6h-.2c.2-.6.4-1.3.6-1.9h-5.1c-.7.8-1.6,1.5-2.6,2l-.2-.2h.1ZM757.9,121.3c8.5.4,5.8,3.6,4.2,2.3-.8-.7-2.2-1.5-4.3-2.1v-.3h0Z"/>
    <path class="cls-4" d="M755.2,135s1,.8,1.5,1.3c0,.2-.2.3-.5.3h-2.7v8.6c0,.2-.7.5-1.2.5h-.3v-7.4h-.2c-.8,1.6-1.8,3.5-2.7,4.7h-.3c.5-1.5,1.1-3.9,1.6-5.8l1.6.6v-1.2h-2.9v-.5c0,0,2.9,0,2.9,0v-6.3l2.2.2c0,.2-.2.4-.6.5v5.5h.8l.9-1.1h0ZM749.5,131.2c3.4,2.4,2,5.1.8,3.9,0-1.2-.6-2.7-1-3.8h.2ZM753.9,137.5c3.7,2.2,2.2,5.1.9,3.9,0-1.2-.6-2.7-1.1-3.8h.2,0ZM753.9,135.2c.3-1.1.8-2.8,1.2-4.2l1.9.7c0,.2-.3.3-.7.3-.6,1.1-1.4,2.4-2.1,3.3h-.3ZM763.6,138.3s.8.7,1.4,1.2c0,.2-.2.3-.4.4l-2,.4v4.9c0,.2-.6.6-1.2.6h-.3v-5.2l-4.3.8-.2-.4,4.5-.8v-10.1l2.1.2c0,.2-.2.4-.6.5v9.1h.3l.7-1.5h0ZM756.8,135.7c4.5.8,3.2,4,1.7,2.8-.2-1-1.1-2.1-1.8-2.7h0ZM757.3,131.5c4.3.8,3.1,3.8,1.6,2.8-.2-.9-1-2-1.7-2.7h.2,0Z"/>
    <path class="cls-4" d="M752,158.3c0,2.9-.2,6.6-2.9,9.1l-.2-.2c1.5-2.6,1.6-5.9,1.6-9v-5.3l1.8.7h5.3,0c-.2-.7-.9-1.5-1.4-2h.2c2.9,0,2.9,1.6,2.2,2.1h3.8l.9-1.3s1.1.9,1.7,1.5c0,.2-.2.3-.5.3h-12.3v4.1h0ZM763.2,163s1,.8,1.7,1.4c0,.2-.2.3-.4.3h-5.6v2.3c0,.2-.7.5-1.2.5h-.3v-2.9h-5.5l-.2-.5h5.6v-1.6h-2.5v.4c0,.1-.7.5-1.3.5h-.2v-6.2l1.6.7h2.4v-1.4h-4.8v-.5c0,0,4.8,0,4.8,0v-1.6l2,.2c0,.2,0,.3-.5.4v1h3l.9-1.1s1,.8,1.6,1.3c0,.2-.2.3-.4.3h-5v1.4h2.4l.7-.8,1.6,1.2c0,.1-.3.3-.6.3v4.2c0,.1-.8.5-1.3.5h-.3v-.7h-2.6v1.6h3.5l.9-1.1h0ZM754.7,158.4v1.6h2.5v-1.6h-2.5ZM757.2,162v-1.6h-2.5v1.6h2.5ZM758.8,158.4v1.6h2.6v-1.6h-2.6ZM761.3,162v-1.6h-2.6v1.6h2.6Z"/>
  </g>
  <g class="cls-7">
    <path class="cls-2" d="M345.9,204.4v-13.5h1.8v5.5h7v-5.5h1.8v13.5h-1.8v-6.4h-7v6.4h-1.8Z"/>
    <path class="cls-2" d="M358.6,199.5c0-1.8.5-3.1,1.5-4,.8-.7,1.9-1.1,3.1-1.1s2.4.4,3.3,1.3c.9.9,1.3,2.1,1.3,3.6s-.2,2.2-.6,3c-.4.7-.9,1.3-1.6,1.7s-1.5.6-2.4.6c-1.4,0-2.5-.4-3.3-1.3-.8-.9-1.3-2.1-1.3-3.8ZM360.3,199.5c0,1.2.3,2.2.8,2.8s1.2.9,2.1.9,1.5-.3,2-.9.8-1.6.8-2.9-.3-2.1-.8-2.7c-.5-.6-1.2-.9-2-.9s-1.5.3-2.1.9c-.5.6-.8,1.6-.8,2.8h0Z"/>
    <path class="cls-2" d="M369.7,204.4v-9.8h1.5v1.4c.7-1.1,1.8-1.6,3.1-1.6s1.1.1,1.6.3.9.5,1.1.8.4.8.5,1.2v7.6h-1.7v-5.9c0-.7,0-1.2-.2-1.5-.1-.3-.4-.6-.7-.8-.3-.2-.7-.3-1.2-.3s-1.3.2-1.8.7-.8,1.3-.8,2.5v5.3h-1.7.3Z"/>
    <path class="cls-2" d="M379.8,205.2l1.6.2c0,.5.3.9.6,1.1.4.3,1,.5,1.7.5s1.4-.2,1.8-.5.7-.7.8-1.3c0-.3.1-1,.1-2.1-.7.9-1.6,1.3-2.7,1.3s-2.4-.5-3.1-1.5-1.1-2.1-1.1-3.5.2-1.8.5-2.6.8-1.4,1.5-1.8c.6-.4,1.4-.6,2.3-.6s2.1.5,2.8,1.4v-1.2h1.5v8.4c0,1.5-.2,2.6-.5,3.2-.3.6-.8,1.1-1.5,1.5s-1.5.6-2.5.6-2.1-.3-2.8-.8c-.7-.5-1.1-1.3-1-2.4h0ZM381.2,199.3c0,1.3.3,2.2.8,2.8s1.1.9,1.9.9,1.4-.3,1.9-.9c.5-.6.8-1.5.8-2.8s-.3-2.1-.8-2.7c-.5-.6-1.2-.9-1.9-.9s-1.4.3-1.9.9c-.5.6-.8,1.5-.8,2.7Z"/>
    <path class="cls-2" d="M396,204.4v-13.5h1.8v6.7l6.7-6.7h2.4l-5.7,5.5,5.9,8h-2.4l-4.8-6.8-2.2,2.2v4.7h-1.8.1Z"/>
    <path class="cls-2" d="M407.8,199.5c0-1.8.5-3.1,1.5-4,.8-.7,1.9-1.1,3.1-1.1s2.4.4,3.3,1.3c.9.9,1.3,2.1,1.3,3.6s-.2,2.2-.6,3c-.4.7-.9,1.3-1.6,1.7s-1.5.6-2.4.6c-1.4,0-2.5-.4-3.3-1.3-.8-.9-1.3-2.1-1.3-3.8ZM409.5,199.5c0,1.2.3,2.2.8,2.8s1.2.9,2.1.9,1.5-.3,2-.9.8-1.6.8-2.9-.3-2.1-.8-2.7c-.5-.6-1.2-.9-2-.9s-1.5.3-2.1.9c-.5.6-.8,1.6-.8,2.8h0Z"/>
    <path class="cls-2" d="M418.9,204.4v-9.8h1.5v1.4c.7-1.1,1.8-1.6,3.1-1.6s1.1.1,1.6.3.9.5,1.1.8.4.8.5,1.2v7.6h-1.7v-5.9c0-.7,0-1.2-.2-1.5-.1-.3-.4-.6-.7-.8-.3-.2-.7-.3-1.2-.3s-1.3.2-1.8.7-.8,1.3-.8,2.5v5.3h-1.7.3Z"/>
    <path class="cls-2" d="M429,205.2l1.6.2c0,.5.3.9.6,1.1.4.3,1,.5,1.7.5s1.4-.2,1.8-.5.7-.7.8-1.3c0-.3.1-1,.1-2.1-.7.9-1.6,1.3-2.7,1.3s-2.4-.5-3.1-1.5-1.1-2.1-1.1-3.5.2-1.8.5-2.6.8-1.4,1.5-1.8c.6-.4,1.4-.6,2.3-.6s2.1.5,2.8,1.4v-1.2h1.5v8.4c0,1.5-.2,2.6-.5,3.2-.3.6-.8,1.1-1.5,1.5s-1.5.6-2.5.6-2.1-.3-2.8-.8c-.7-.5-1.1-1.3-1-2.4h0ZM430.4,199.3c0,1.3.3,2.2.8,2.8s1.1.9,1.9.9,1.4-.3,1.9-.9c.5-.6.8-1.5.8-2.8s-.3-2.1-.8-2.7c-.5-.6-1.2-.9-1.9-.9s-1.4.3-1.9.9c-.5.6-.8,1.5-.8,2.7Z"/>
    <path class="cls-2" d="M445.2,204.4v-13.5h1.8v11.9h6.6v1.6h-8.4Z"/>
    <path class="cls-2" d="M455.5,192.8v-1.9h1.7v1.9h-1.7ZM455.5,204.4v-9.8h1.7v9.8h-1.7Z"/>
    <path class="cls-2" d="M463.3,202.9l.2,1.5c-.5,0-.9.1-1.3.1-.6,0-1.1,0-1.4-.3-.3-.2-.6-.4-.7-.7s-.2-1-.2-2v-5.6h-1.2v-1.3h1.2v-2.4l1.6-1v3.4h1.7v1.3h-1.7v6.6c0,.1.2.2.3.3.1,0,.3.1.6.1h.9Z"/>
    <path class="cls-2" d="M471.6,201.2l1.7.2c-.3,1-.8,1.8-1.5,2.3s-1.7.8-2.8.8-2.6-.4-3.4-1.3c-.8-.9-1.3-2.1-1.3-3.7s.4-2.9,1.3-3.8c.8-.9,1.9-1.4,3.3-1.4s2.4.4,3.2,1.3c.8.9,1.2,2.1,1.2,3.8s0,.2,0,.4h-7.3c0,1.1.4,1.9.9,2.5s1.2.9,2,.9,1.1-.2,1.6-.5c.4-.3.8-.8,1-1.5h0ZM466.2,198.6h5.5c0-.8-.3-1.4-.6-1.8-.5-.6-1.2-1-2.1-1s-1.4.3-1.9.8-.8,1.2-.9,2Z"/>
    <path class="cls-2" d="M475.4,204.4v-9.8h1.5v1.5c.4-.7.7-1.1,1.1-1.4s.7-.3,1.1-.3c.6,0,1.1.2,1.7.5l-.6,1.5c-.4-.2-.8-.4-1.2-.4s-.7.1-1,.3-.5.5-.6.9c-.2.6-.3,1.2-.3,1.9v5.1h-1.7v.2Z"/>
    <path class="cls-2" d="M488,203.2c-.6.5-1.2.9-1.8,1.1-.6.2-1.2.3-1.8.3-1.1,0-1.9-.3-2.5-.8s-.9-1.2-.9-2,.1-.9.3-1.3c.2-.4.5-.7.9-1,.4-.2.7-.4,1.2-.5.3,0,.8-.2,1.5-.2,1.3-.2,2.3-.3,3-.6v-.4c0-.7-.2-1.1-.5-1.4s-1.1-.6-1.9-.6-1.4.1-1.7.4-.6.8-.8,1.4l-1.6-.2c.1-.7.4-1.3.7-1.7.3-.4.8-.8,1.5-1,.6-.2,1.4-.3,2.2-.3s1.5,0,2,.3.9.4,1.1.7.4.7.5,1.1v3.7c0,1.5,0,2.5.1,2.9,0,.4.2.8.4,1.2h-1.7c-.2-.3-.3-.7-.3-1.2h0ZM487.9,199.5c-.6.2-1.5.5-2.7.6-.7,0-1.2.2-1.4.3-.3.1-.5.3-.7.5s-.2.5-.2.8.2.8.5,1.1.8.4,1.5.4,1.2-.1,1.7-.4c.5-.3.9-.7,1.1-1.1.2-.4.3-.9.3-1.7v-.6h0Z"/>
    <path class="cls-2" d="M495.7,202.9l.2,1.5c-.5,0-.9.1-1.3.1-.6,0-1.1,0-1.4-.3-.3-.2-.6-.4-.7-.7s-.2-1-.2-2v-5.6h-1.2v-1.3h1.2v-2.4l1.6-1v3.4h1.7v1.3h-1.7v6.6c0,.1.2.2.3.3.1,0,.3.1.6.1h.9Z"/>
    <path class="cls-2" d="M503.7,204.4v-1.4c-.8,1.1-1.8,1.7-3.1,1.7s-1.1-.1-1.6-.3-.9-.5-1.1-.8-.4-.7-.5-1.2c0-.3-.1-.8-.1-1.5v-6h1.7v5.4c0,.9,0,1.4.1,1.7.1.4.3.8.7,1,.3.2.8.4,1.2.4s1-.1,1.4-.4c.4-.3.7-.6.9-1,.2-.4.3-1.1.3-1.9v-5.2h1.7v9.8h-1.5v-.3Z"/>
    <path class="cls-2" d="M507.8,204.4v-9.8h1.5v1.5c.4-.7.7-1.1,1.1-1.4s.7-.3,1.1-.3c.6,0,1.1.2,1.7.5l-.6,1.5c-.4-.2-.8-.4-1.2-.4s-.7.1-1,.3-.5.5-.6.9c-.2.6-.3,1.2-.3,1.9v5.1h-1.7v.2Z"/>
    <path class="cls-2" d="M520.8,201.2l1.7.2c-.3,1-.8,1.8-1.5,2.3s-1.7.8-2.8.8-2.6-.4-3.4-1.3c-.8-.9-1.3-2.1-1.3-3.7s.4-2.9,1.3-3.8c.8-.9,1.9-1.4,3.3-1.4s2.4.4,3.2,1.3c.8.9,1.2,2.1,1.2,3.8s0,.2,0,.4h-7.3c0,1.1.4,1.9.9,2.5s1.2.9,2,.9,1.1-.2,1.6-.5c.4-.3.8-.8,1-1.5h0ZM515.3,198.6h5.5c0-.8-.3-1.4-.6-1.8-.5-.6-1.2-1-2.1-1s-1.4.3-1.9.8-.8,1.2-.9,2Z"/>
    <path class="cls-2" d="M530,204.4v-13.5h4.6c1,0,1.8,0,2.4.2.8.2,1.4.5,2,1,.7.6,1.2,1.4,1.6,2.3.4.9.5,2,.5,3.2s0,1.9-.4,2.7c-.2.8-.5,1.4-.9,2-.4.5-.8.9-1.2,1.2s-1,.5-1.6.7-1.4.2-2.2.2h-4.9.1ZM531.8,202.8h2.9c.9,0,1.6,0,2.1-.2s.9-.4,1.2-.7.8-1,1-1.7.4-1.6.4-2.6-.2-2.5-.7-3.2c-.5-.8-1-1.3-1.7-1.5-.5-.2-1.2-.3-2.3-.3h-2.8v10.3h-.1Z"/>
    <path class="cls-2" d="M549.8,203.2c-.6.5-1.2.9-1.8,1.1-.6.2-1.2.3-1.8.3-1.1,0-1.9-.3-2.5-.8s-.9-1.2-.9-2,0-.9.3-1.3c.2-.4.5-.7.9-1,.4-.2.7-.4,1.2-.5.3,0,.8-.2,1.5-.2,1.3-.2,2.3-.3,3-.6v-.4c0-.7-.2-1.1-.5-1.4-.4-.4-1.1-.6-1.9-.6s-1.4.1-1.7.4c-.4.3-.6.8-.8,1.4l-1.6-.2c0-.7.4-1.3.7-1.7s.8-.8,1.5-1c.6-.2,1.4-.3,2.2-.3s1.5,0,2,.3c.5.2.9.4,1.1.7.2.3.4.7.5,1.1v3.7c0,1.5,0,2.5,0,2.9s.2.8.4,1.2h-1.7c-.2-.3-.3-.7-.3-1.2h0ZM549.6,199.5c-.6.2-1.5.5-2.7.6-.7,0-1.2.2-1.4.3-.3.1-.5.3-.7.5s-.2.5-.2.8.2.8.5,1.1.8.4,1.5.4,1.2-.1,1.7-.4c.5-.3.9-.7,1.1-1.1.2-.4.3-.9.3-1.7v-.6h0Z"/>
    <path class="cls-2" d="M557.5,202.9l.2,1.5c-.5,0-.9.1-1.2.1-.6,0-1.1,0-1.4-.3s-.6-.4-.7-.7-.2-1-.2-2v-5.6h-1.2v-1.3h1.2v-2.4l1.6-1v3.4h1.7v1.3h-1.7v6.6c0,.1.2.2.3.3,0,0,.3.1.6.1h.8Z"/>
    <path class="cls-2" d="M565.5,203.2c-.6.5-1.2.9-1.8,1.1-.6.2-1.2.3-1.8.3-1.1,0-1.9-.3-2.5-.8s-.9-1.2-.9-2,0-.9.3-1.3c.2-.4.5-.7.9-1,.4-.2.7-.4,1.2-.5.3,0,.8-.2,1.5-.2,1.3-.2,2.3-.3,3-.6v-.4c0-.7-.2-1.1-.5-1.4-.4-.4-1.1-.6-1.9-.6s-1.4.1-1.7.4c-.4.3-.6.8-.8,1.4l-1.6-.2c0-.7.4-1.3.7-1.7s.8-.8,1.5-1c.6-.2,1.4-.3,2.2-.3s1.5,0,2,.3c.5.2.9.4,1.1.7.2.3.4.7.5,1.1v3.7c0,1.5,0,2.5,0,2.9s.2.8.4,1.2h-1.7c-.2-.3-.3-.7-.3-1.2h0ZM565.3,199.5c-.6.2-1.5.5-2.7.6-.7,0-1.2.2-1.4.3-.3.1-.5.3-.7.5s-.2.5-.2.8.2.8.5,1.1.8.4,1.5.4,1.2-.1,1.7-.4c.5-.3.9-.7,1.1-1.1.2-.4.3-.9.3-1.7v-.6h0Z"/>
    <path class="cls-2" d="M571.1,204.4h-1.5v-13.5h1.7v4.8c.7-.9,1.6-1.3,2.7-1.3s1.2.1,1.7.4,1,.6,1.3,1,.6,1,.8,1.6.3,1.3.3,2c0,1.7-.4,3-1.2,3.9s-1.8,1.4-3,1.4-2.1-.5-2.7-1.4v1.2h0ZM571.1,199.4c0,1.2.2,2,.5,2.5.5.9,1.2,1.3,2.1,1.3s1.3-.3,1.9-.9.8-1.6.8-2.8-.3-2.2-.8-2.8-1.1-.9-1.8-.9-1.3.3-1.9.9c-.5.6-.8,1.5-.8,2.7Z"/>
    <path class="cls-2" d="M586.4,203.2c-.6.5-1.2.9-1.8,1.1-.6.2-1.2.3-1.8.3-1.1,0-1.9-.3-2.5-.8s-.9-1.2-.9-2,0-.9.3-1.3c.2-.4.5-.7.9-1,.4-.2.7-.4,1.2-.5.3,0,.8-.2,1.5-.2,1.3-.2,2.3-.3,3-.6v-.4c0-.7-.2-1.1-.5-1.4-.4-.4-1.1-.6-1.9-.6s-1.4.1-1.7.4c-.4.3-.6.8-.8,1.4l-1.6-.2c0-.7.4-1.3.7-1.7s.8-.8,1.5-1c.6-.2,1.4-.3,2.2-.3s1.5,0,2,.3c.5.2.9.4,1.1.7.2.3.4.7.5,1.1v3.7c0,1.5,0,2.5,0,2.9s.2.8.4,1.2h-1.7c-.2-.3-.3-.7-.3-1.2h0ZM586.3,199.5c-.6.2-1.5.5-2.7.6-.7,0-1.2.2-1.4.3-.3.1-.5.3-.7.5s-.2.5-.2.8.2.8.5,1.1.8.4,1.5.4,1.2-.1,1.7-.4c.5-.3.9-.7,1.1-1.1.2-.4.3-.9.3-1.7v-.6h0Z"/>
    <path class="cls-2" d="M589.8,201.5l1.6-.3c0,.7.3,1.2.8,1.5.4.3,1,.5,1.8.5s1.3-.2,1.7-.5.6-.7.6-1.1-.2-.7-.5-.9c-.2-.1-.8-.3-1.7-.6-1.2-.3-2.1-.6-2.5-.8s-.8-.5-1.1-.9-.4-.8-.4-1.3,0-.8.3-1.2.5-.7.8-.9.6-.4,1.1-.5.9-.2,1.4-.2c.8,0,1.4.1,2,.3s1,.5,1.3.9.5.9.6,1.5l-1.6.2c0-.5-.3-.9-.6-1.2-.4-.3-.9-.4-1.5-.4s-1.3.1-1.6.4c-.3.3-.5.5-.5.9s0,.4.2.6c0,.2.3.3.6.4.2,0,.7.2,1.5.4,1.2.3,2,.6,2.4.8s.8.5,1.1.9.4.9.4,1.4-.2,1.1-.5,1.6-.8.9-1.4,1.1-1.3.4-2.1.4c-1.3,0-2.2-.3-2.9-.8s-1.1-1.3-1.3-2.3h0Z"/>
    <path class="cls-2" d="M606.6,201.2l1.7.2c-.3,1-.8,1.8-1.5,2.3-.7.6-1.7.8-2.8.8s-2.6-.4-3.4-1.3c-.8-.9-1.3-2.1-1.3-3.7s.4-2.9,1.3-3.8c.8-.9,1.9-1.4,3.3-1.4s2.4.4,3.2,1.3c.8.9,1.2,2.1,1.2,3.8s0,.2,0,.4h-7.3c0,1.1.4,1.9.9,2.5s1.2.9,2,.9,1.1-.2,1.6-.5c.4-.3.8-.8,1-1.5h0ZM601.2,198.6h5.5c0-.8-.3-1.4-.6-1.8-.5-.6-1.2-1-2-1s-1.4.3-1.9.8-.8,1.2-.9,2h0Z"/>
  </g>
</svg>